<svg id="svg" version="1.1" xmlns="http://www.w3.org/2000/svg" xmlns:xlink="http://www.w3.org/1999/xlink" width="400" height="335.2112676056338" viewBox="0, 0, 400,335.2112676056338"><g id="svgg"><path id="path0" d="M189.539 79.820 C 187.732 81.675,185.423 83.976,184.409 84.933 C 183.395 85.889,181.735 87.577,180.721 88.684 C 179.707 89.790,177.896 91.601,176.697 92.707 C 175.499 93.814,173.613 95.689,172.506 96.875 C 171.400 98.060,169.517 99.946,168.321 101.066 C 167.126 102.185,165.393 103.931,164.470 104.946 C 163.547 105.960,161.983 107.544,160.994 108.466 C 160.006 109.388,148.970 120.402,136.471 132.942 C 123.973 145.482,113.201 156.270,112.535 156.915 C 108.288 161.031,76.038 193.306,74.974 194.505 C 74.256 195.315,72.610 196.910,71.316 198.050 C 67.322 201.572,67.712 198.221,67.810 228.199 L 67.896 254.317 193.797 254.317 L 319.698 254.317 319.784 228.167 L 319.870 202.016 257.049 139.231 C 213.552 95.758,194.013 76.446,193.527 76.446 C 193.079 76.446,191.636 77.667,189.539 79.820 M189.816 136.682 C 190.558 137.575,190.487 158.491,189.740 159.037 C 188.903 159.650,169.279 159.587,168.535 158.970 C 166.581 157.349,170.469 148.181,175.096 143.496 C 177.817 140.742,183.435 137.133,185.002 137.133 C 185.343 137.133,185.915 136.912,186.273 136.641 C 187.165 135.966,189.242 135.990,189.816 136.682 M201.341 136.751 C 207.705 139.036,211.303 141.705,214.972 146.862 C 218.120 151.287,220.167 157.773,218.778 158.925 C 218.170 159.430,198.314 159.607,197.517 159.115 C 197.112 158.864,196.972 136.753,197.374 136.351 C 197.775 135.950,199.630 136.137,201.341 136.751 M219.189 166.185 C 220.066 167.384,219.774 186.606,218.869 187.240 C 217.876 187.936,198.649 188.029,197.712 187.343 C 197.190 186.961,197.147 185.994,197.229 176.362 L 197.318 165.801 206.706 165.633 C 218.200 165.428,218.650 165.447,219.189 166.185 M190.018 166.555 C 190.457 168.133,190.227 186.712,189.761 187.274 C 189.208 187.941,169.438 188.005,168.555 187.343 C 167.793 186.772,167.616 166.405,168.368 165.928 C 168.616 165.771,173.530 165.641,179.290 165.638 L 189.761 165.633 190.018 166.555 M17.435 290.334 C 13.279 291.304,11.400 294.193,11.400 299.613 C 11.400 304.723,12.738 306.483,19.130 309.780 C 26.132 313.393,26.655 314.012,26.655 318.692 C 26.656 323.816,25.343 325.361,20.969 325.385 C 17.106 325.406,15.465 324.000,15.115 320.369 L 14.920 318.357 13.244 318.357 L 11.567 318.357 11.466 320.328 C 11.400 321.605,11.547 322.684,11.885 323.396 C 12.171 324.000,12.406 324.634,12.406 324.806 C 12.406 326.731,16.696 328.583,21.155 328.583 C 28.219 328.583,30.951 325.320,30.399 317.542 C 30.094 313.243,28.303 310.443,24.781 308.758 C 15.976 304.545,15.088 303.682,15.088 299.345 C 15.088 291.555,25.939 290.567,26.432 298.313 C 26.579 300.622,26.926 300.939,29.046 300.697 L 30.008 300.587 29.999 297.893 C 29.977 291.902,24.594 288.664,17.435 290.334 M269.573 290.322 C 261.832 291.612,258.670 296.738,258.555 308.179 C 258.436 320.001,260.033 324.278,265.566 326.952 C 275.118 331.568,285.990 326.930,287.328 317.669 C 287.737 314.841,287.765 304.445,287.372 301.402 C 286.344 293.440,278.851 288.775,269.573 290.322 M48.465 290.670 C 48.360 290.841,48.516 292.463,48.812 294.275 C 49.109 296.087,49.563 298.852,49.822 300.419 C 50.080 301.987,50.510 304.778,50.777 306.622 C 51.557 312.005,51.974 314.633,52.135 315.172 C 52.218 315.448,52.670 318.379,53.140 321.684 C 54.132 328.659,54.093 328.583,56.697 328.583 C 59.062 328.583,59.570 328.034,60.008 325.005 C 60.163 323.930,60.447 322.070,60.639 320.872 C 60.831 319.673,61.229 317.033,61.525 315.004 C 61.821 312.976,62.199 310.637,62.365 309.807 C 62.531 308.977,62.837 307.213,63.046 305.886 C 63.344 303.986,64.187 302.093,64.415 302.809 C 64.437 302.878,64.645 304.367,64.877 306.119 C 65.110 307.871,65.615 311.341,66.000 313.831 C 67.314 322.326,67.735 325.398,67.732 326.469 C 67.727 327.925,68.740 328.583,70.981 328.583 C 73.242 328.583,73.671 327.979,74.103 324.185 C 74.280 322.639,74.573 320.620,74.755 319.698 C 74.937 318.776,75.322 316.287,75.610 314.166 C 75.899 312.045,76.446 308.500,76.827 306.287 C 78.315 297.627,79.196 291.076,78.930 290.646 C 78.833 290.489,78.011 290.360,77.103 290.360 C 75.292 290.360,75.300 290.349,74.988 293.210 C 74.451 298.113,74.068 301.185,73.775 302.934 C 73.590 304.040,73.206 306.832,72.922 309.137 C 71.589 319.971,71.159 322.738,70.855 322.433 C 70.533 322.112,69.659 317.456,68.547 310.142 C 68.280 308.391,67.842 305.675,67.573 304.107 C 67.304 302.540,66.857 299.673,66.581 297.737 C 66.305 295.801,65.922 293.404,65.730 292.410 C 65.538 291.417,65.381 290.541,65.381 290.464 C 65.381 290.387,64.665 290.370,63.789 290.426 L 62.196 290.528 61.635 294.049 C 61.327 295.985,60.900 298.701,60.688 300.084 C 60.475 301.467,60.101 303.655,59.855 304.946 C 59.610 306.236,59.156 309.028,58.847 311.148 C 58.290 314.974,57.498 319.804,57.119 321.682 C 56.734 323.586,56.294 321.865,55.471 315.249 C 55.203 313.086,54.755 309.732,54.476 307.795 C 54.198 305.859,53.824 302.917,53.647 301.257 C 53.328 298.283,52.747 293.578,52.435 291.450 C 52.273 290.345,49.056 289.714,48.465 290.670 M97.772 290.639 C 97.364 291.299,97.499 327.592,97.911 328.089 C 98.335 328.600,112.552 328.860,113.803 328.380 C 114.176 328.237,114.334 327.737,114.334 326.703 C 114.334 324.998,115.235 325.181,107.094 325.229 C 100.705 325.267,101.220 325.930,101.334 317.811 L 101.425 311.316 107.125 311.148 L 112.825 310.981 112.932 309.674 C 113.078 307.892,112.947 307.852,107.104 307.866 C 100.637 307.882,101.257 308.635,101.257 300.770 C 101.257 292.867,100.410 293.713,108.326 293.713 L 114.334 293.713 114.334 292.037 L 114.334 290.360 106.139 290.360 C 101.632 290.360,97.866 290.486,97.772 290.639 M133.669 290.584 C 133.022 291.231,133.436 327.884,134.094 328.236 C 135.430 328.951,149.798 328.682,150.198 327.935 C 151.522 325.460,150.865 325.164,144.162 325.215 C 136.493 325.273,137.133 325.896,137.133 318.373 C 137.133 310.350,136.516 311.148,142.723 311.148 C 148.452 311.148,149.204 310.955,149.204 309.480 C 149.204 308.071,148.918 307.999,143.050 307.935 C 136.582 307.865,137.145 308.555,137.138 300.682 C 137.132 293.056,136.458 293.713,144.284 293.713 L 150.137 293.713 150.347 292.875 C 150.463 292.414,150.463 291.660,150.347 291.199 L 150.137 290.360 142.015 290.360 C 137.547 290.360,133.792 290.461,133.669 290.584 M168.203 290.584 C 168.080 290.707,167.980 291.461,167.980 292.260 L 167.980 293.713 171.417 293.718 C 173.307 293.721,175.041 293.842,175.269 293.988 C 175.590 294.191,175.705 298.180,175.772 311.334 L 175.859 328.416 177.140 328.521 C 179.502 328.716,179.380 329.670,179.380 310.976 C 179.380 295.915,179.436 294.099,179.910 293.917 C 180.202 293.805,181.859 293.713,183.592 293.713 C 187.052 293.713,187.501 293.378,186.954 291.199 L 186.743 290.360 177.585 290.360 C 172.548 290.360,168.326 290.461,168.203 290.584 M206.762 290.584 C 206.328 291.018,206.502 327.743,206.940 328.181 C 207.439 328.680,212.023 328.722,212.931 328.236 C 213.540 327.910,213.579 327.467,213.579 320.924 C 213.579 311.933,212.757 312.788,221.292 312.901 L 228.164 312.992 228.252 320.369 C 228.328 326.824,228.409 327.798,228.902 328.164 C 229.574 328.664,233.614 328.726,234.851 328.255 L 235.714 327.927 235.627 309.228 L 235.541 290.528 232.020 290.528 L 228.500 290.528 228.332 298.240 L 228.164 305.951 221.222 306.042 C 212.819 306.152,213.658 307.044,213.601 297.938 C 213.577 294.084,213.477 290.802,213.380 290.645 C 213.174 290.311,207.091 290.255,206.762 290.584 M310.019 291.115 C 309.657 292.462,309.780 327.235,310.148 327.923 C 310.535 328.647,315.281 328.854,316.090 328.182 C 316.416 327.911,316.513 325.109,316.513 315.996 C 316.513 300.737,316.552 300.664,319.562 310.242 C 320.327 312.677,321.226 315.348,321.558 316.178 C 321.891 317.008,322.562 318.969,323.048 320.536 C 324.121 323.996,324.387 324.225,327.328 324.225 C 330.710 324.225,330.655 324.289,332.609 318.105 C 333.555 315.109,334.485 312.280,334.674 311.819 C 335.091 310.800,335.652 309.089,336.629 305.851 C 337.951 301.467,338.131 302.574,338.227 315.673 C 338.287 323.859,338.434 327.830,338.687 328.135 C 339.452 329.057,344.302 328.733,344.681 327.735 C 345.147 326.510,344.958 291.177,344.483 290.702 C 344.250 290.469,342.532 290.374,339.667 290.434 L 335.214 290.528 334.789 291.702 C 334.555 292.347,334.205 293.479,334.010 294.216 C 333.683 295.457,332.166 300.555,331.067 304.107 C 330.811 304.937,330.137 307.200,329.571 309.137 C 327.968 314.616,327.886 314.837,327.453 314.837 C 327.057 314.837,326.528 313.434,325.368 309.304 C 325.057 308.198,324.463 306.236,324.047 304.946 C 323.632 303.655,322.904 301.241,322.429 299.581 C 320.976 294.499,319.914 291.045,319.697 290.694 C 319.207 289.901,310.240 290.290,310.019 291.115 M369.046 290.580 C 368.609 291.017,368.780 327.740,369.220 328.181 C 369.798 328.758,394.326 328.758,394.904 328.181 C 395.150 327.934,395.306 326.728,395.306 325.063 C 395.306 321.304,395.968 321.542,385.535 321.542 C 379.055 321.542,376.502 321.434,376.327 321.150 C 375.998 320.618,376.104 313.452,376.446 313.110 C 376.595 312.960,380.184 312.797,384.419 312.747 L 392.121 312.657 392.218 309.668 C 392.342 305.886,392.894 306.131,384.241 306.119 C 375.484 306.107,376.163 306.471,376.168 301.780 C 376.172 296.658,375.276 297.093,386.038 296.988 L 395.138 296.899 395.138 293.713 L 395.138 290.528 382.206 290.440 C 375.093 290.392,369.171 290.455,369.046 290.580 M275.642 297.453 C 279.455 298.746,279.966 300.148,279.966 309.306 C 279.966 316.909,279.767 318.080,278.174 319.814 C 274.822 323.463,267.796 321.807,266.608 317.088 C 266.112 315.118,266.097 304.041,266.587 301.754 C 267.364 298.134,271.649 296.098,275.642 297.453 " stroke="none" fill="#0e4373" fill-rule="evenodd"></path><path id="path1" d="M281.798 7.937 C 281.138 8.643,280.283 9.824,279.899 10.562 C 279.514 11.299,278.693 12.522,278.074 13.278 C 277.455 14.035,276.946 14.789,276.941 14.955 C 276.937 15.120,276.639 15.633,276.278 16.094 C 275.230 17.434,275.359 19.877,276.517 20.636 C 277.835 21.499,289.536 21.692,290.455 20.866 C 291.395 20.021,290.377 15.072,289.106 14.305 C 288.850 14.151,288.538 13.751,288.411 13.416 C 288.285 13.081,287.686 12.226,287.081 11.517 C 286.476 10.807,285.495 9.481,284.902 8.570 C 283.516 6.445,283.245 6.390,281.798 7.937 M325.976 7.693 C 325.381 8.236,324.895 9.001,324.895 9.394 C 324.895 9.800,324.330 10.616,323.583 11.286 C 322.862 11.933,322.180 12.828,322.068 13.273 C 321.956 13.718,321.735 14.082,321.575 14.082 C 319.962 14.082,317.293 21.725,318.345 23.331 L 318.875 24.141 327.406 24.141 C 335.783 24.141,335.943 24.128,336.321 23.422 C 336.938 22.269,336.533 19.463,335.506 17.770 C 335.002 16.940,334.408 15.960,334.185 15.592 C 333.963 15.224,333.365 14.426,332.858 13.820 C 332.351 13.214,331.936 12.600,331.936 12.457 C 331.936 12.314,331.668 11.904,331.341 11.547 C 331.014 11.189,330.024 9.954,329.142 8.801 C 327.284 6.373,327.383 6.408,325.976 7.693 M186.748 23.102 C 183.156 26.588,179.992 29.686,179.715 29.986 C 179.438 30.287,178.458 31.278,177.536 32.188 C 176.614 33.098,175.633 34.068,175.356 34.343 C 175.080 34.619,172.683 37.000,170.031 39.635 C 167.378 42.270,164.813 44.871,164.331 45.415 C 163.317 46.559,161.733 48.138,160.573 49.162 C 159.907 49.749,150.922 58.722,149.870 59.849 C 147.976 61.881,146.833 63.036,145.850 63.912 C 145.205 64.487,142.590 67.052,140.039 69.612 C 134.412 75.259,134.769 74.894,132.840 76.949 C 131.974 77.871,130.964 78.871,130.595 79.170 C 130.226 79.470,127.764 81.922,125.123 84.619 C 122.482 87.316,120.140 89.522,119.918 89.522 C 119.697 89.522,119.226 90.060,118.872 90.718 C 118.517 91.375,117.691 92.353,117.035 92.891 C 115.406 94.227,115.453 94.182,110.035 99.622 C 107.394 102.273,105.007 104.669,104.731 104.946 C 104.456 105.222,103.591 106.127,102.810 106.957 C 102.030 107.787,101.022 108.781,100.570 109.165 C 100.118 109.550,97.654 112.002,95.094 114.614 C 92.535 117.226,90.365 119.363,90.272 119.363 C 90.180 119.363,89.213 120.335,88.124 121.524 C 87.035 122.712,85.858 123.775,85.509 123.886 C 85.160 123.997,84.779 124.525,84.661 125.059 C 84.539 125.616,84.031 126.295,83.473 126.648 C 82.937 126.988,81.435 128.618,80.135 130.271 C 78.835 131.925,77.397 133.683,76.941 134.178 C 76.484 134.673,76.111 135.291,76.111 135.550 C 76.111 135.809,75.331 137.289,74.379 138.840 C 73.426 140.391,72.144 142.640,71.530 143.839 C 70.916 145.038,70.270 146.245,70.095 146.521 C 69.920 146.798,69.686 147.590,69.575 148.282 C 69.465 148.973,69.230 149.539,69.054 149.539 C 68.878 149.539,68.734 149.728,68.734 149.958 C 68.734 150.189,68.195 151.961,67.536 153.898 C 65.634 159.489,65.339 160.682,64.404 166.555 C 64.050 168.779,63.939 178.454,64.250 180.008 C 64.511 181.313,64.813 181.317,66.343 180.039 C 68.258 178.439,68.350 178.374,68.720 178.374 C 68.912 178.374,69.070 178.174,69.070 177.929 C 69.070 177.236,82.155 164.231,83.108 163.976 C 83.613 163.841,84.041 163.421,84.173 162.932 C 84.439 161.948,96.640 149.612,98.071 148.879 C 98.624 148.597,99.125 148.104,99.184 147.784 C 99.322 147.044,112.159 134.212,113.043 133.932 C 113.406 133.817,113.882 133.332,114.099 132.856 C 114.608 131.739,127.002 119.385,128.001 118.999 C 128.418 118.838,128.937 118.315,129.155 117.838 C 129.726 116.584,142.177 104.237,143.145 103.965 C 143.628 103.829,144.105 103.335,144.318 102.748 C 144.739 101.590,156.969 89.277,158.141 88.832 C 158.580 88.665,159.071 88.186,159.231 87.768 C 159.668 86.633,172.217 74.142,173.158 73.906 C 173.645 73.784,174.102 73.327,174.297 72.768 C 174.685 71.654,186.894 59.360,188.205 58.764 C 188.706 58.535,189.249 58.007,189.411 57.590 C 189.935 56.238,192.897 53.311,193.740 53.311 C 194.541 53.311,199.162 57.550,199.162 58.285 C 199.162 58.487,199.485 58.825,199.881 59.037 C 200.277 59.249,201.522 60.389,202.647 61.571 C 203.773 62.753,205.730 64.735,206.997 65.976 C 208.264 67.216,209.697 68.672,210.182 69.211 C 210.668 69.750,212.045 71.133,213.244 72.285 C 215.256 74.218,216.081 75.024,217.553 76.496 C 217.857 76.800,218.461 77.404,218.895 77.837 C 223.749 82.686,229.003 88.229,229.003 88.501 C 229.003 88.689,229.493 89.048,230.092 89.298 C 230.692 89.549,231.393 90.149,231.652 90.633 C 231.910 91.116,232.690 91.888,233.385 92.348 C 234.080 92.808,234.744 93.484,234.861 93.851 C 234.977 94.217,235.353 94.606,235.695 94.715 C 236.038 94.824,236.565 95.288,236.865 95.746 C 237.165 96.205,238.725 97.852,240.332 99.407 C 241.938 100.962,243.403 102.402,243.588 102.608 C 243.898 102.955,244.712 103.765,246.057 105.064 C 247.944 106.889,249.705 108.666,250.547 109.594 C 250.821 109.896,252.875 111.939,255.112 114.135 C 257.348 116.332,259.179 118.316,259.179 118.545 C 259.179 118.775,259.609 119.112,260.136 119.296 C 260.662 119.479,261.412 120.145,261.801 120.775 C 262.190 121.404,262.904 122.131,263.387 122.390 C 263.870 122.648,264.482 123.280,264.748 123.794 C 265.014 124.307,265.349 124.728,265.493 124.728 C 265.638 124.728,267.709 126.690,270.095 129.088 C 272.482 131.487,274.623 133.637,274.854 133.866 C 275.085 134.096,276.292 135.308,277.536 136.561 C 278.781 137.813,280.989 140.001,282.443 141.422 C 283.898 142.844,285.331 144.297,285.628 144.652 C 285.926 145.006,287.150 146.245,288.349 147.404 C 289.547 148.563,290.742 149.719,291.003 149.972 C 291.588 150.540,292.949 151.891,293.994 152.942 C 299.476 158.454,305.952 164.918,307.813 166.734 C 309.094 167.985,310.142 169.230,310.142 169.500 C 310.142 169.771,310.292 169.992,310.474 169.992 C 310.657 169.992,312.462 171.651,314.486 173.680 C 316.511 175.708,318.274 177.368,318.406 177.368 C 318.537 177.368,319.128 177.896,319.720 178.541 C 320.618 179.523,321.023 179.715,322.191 179.715 L 323.588 179.715 323.460 174.769 C 323.247 166.550,322.727 163.156,320.682 156.649 C 319.680 153.459,318.860 150.573,318.860 150.235 C 318.860 149.898,318.643 149.441,318.379 149.222 C 318.114 149.002,317.798 148.369,317.676 147.814 C 317.554 147.260,317.038 146.328,316.530 145.742 C 316.021 145.156,315.274 143.673,314.869 142.446 C 314.464 141.218,313.536 139.363,312.808 138.323 C 312.080 137.284,311.484 136.300,311.484 136.138 C 311.484 135.976,311.138 135.417,310.716 134.896 C 310.294 134.375,309.769 133.533,309.550 133.026 C 309.330 132.519,309.021 132.104,308.863 132.104 C 308.704 132.104,307.661 130.935,306.545 129.505 C 305.429 128.076,302.802 125.222,300.707 123.163 C 298.613 121.104,296.446 118.971,295.893 118.423 C 294.310 116.854,290.953 113.105,290.657 112.576 C 290.509 112.312,290.368 101.582,290.342 88.730 C 290.305 69.671,290.213 65.282,289.846 64.915 C 289.181 64.250,279.356 63.942,270.854 64.321 C 268.587 64.422,268.644 64.096,268.668 76.741 C 268.690 88.897,268.653 89.187,267.055 89.187 C 266.638 89.187,266.074 88.847,265.802 88.432 C 265.530 88.017,263.314 85.716,260.877 83.319 C 255.258 77.792,253.048 75.515,252.697 74.892 C 252.544 74.620,252.062 74.261,251.625 74.095 C 251.189 73.929,250.559 73.377,250.227 72.869 C 249.468 71.708,236.859 59.138,236.199 58.885 C 235.931 58.782,235.447 58.274,235.123 57.756 C 234.181 56.246,221.705 44.108,220.896 43.913 C 220.483 43.813,220.062 43.372,219.936 42.907 C 219.813 42.451,217.244 39.665,214.227 36.714 C 211.211 33.764,208.283 30.869,207.721 30.282 C 207.159 29.695,206.305 29.065,205.823 28.882 C 205.319 28.690,204.857 28.191,204.736 27.708 C 204.620 27.245,203.074 25.461,201.301 23.744 C 199.528 22.026,197.243 19.753,196.223 18.692 C 193.740 16.111,194.147 15.921,186.748 23.102 M304.547 17.853 C 303.978 18.453,303.246 19.472,302.922 20.117 C 302.597 20.763,301.995 21.744,301.585 22.297 C 299.069 25.684,300.236 26.779,306.367 26.781 C 312.056 26.782,313.299 25.640,310.686 22.812 C 310.254 22.344,309.559 21.262,309.143 20.407 C 307.460 16.954,306.111 16.205,304.547 17.853 M279.547 29.198 C 279.225 29.552,278.961 29.955,278.961 30.094 C 278.961 30.233,278.131 31.478,277.117 32.860 C 273.843 37.324,273.349 38.039,272.832 39.061 C 272.551 39.614,271.704 40.769,270.947 41.627 C 270.191 42.485,269.573 43.306,269.573 43.450 C 269.573 43.594,269.296 44.024,268.959 44.404 C 267.467 46.087,267.303 51.803,268.717 52.837 C 269.176 53.172,272.015 53.278,281.131 53.298 C 294.099 53.327,294.048 53.334,293.562 51.385 C 293.435 50.877,293.271 49.180,293.198 47.614 C 293.102 45.595,292.918 44.661,292.562 44.400 C 292.021 44.005,291.003 42.605,287.462 37.385 C 286.211 35.541,284.541 33.226,283.751 32.241 C 282.960 31.256,282.313 30.299,282.313 30.115 C 282.313 28.927,280.380 28.286,279.547 29.198 M306.744 35.457 C 299.207 45.023,299.528 46.632,308.924 46.387 C 315.488 46.216,317.024 44.497,313.892 40.828 C 312.744 39.483,309.972 34.979,309.657 33.948 C 309.283 32.723,308.633 33.060,306.744 35.457 " stroke="none" fill="#f3c40c" fill-rule="evenodd"></path><path id="path2" d="M0.000 167.645 L 0.000 335.289 200.000 335.289 L 400.000 335.289 400.000 167.645 L 400.000 0.000 200.000 0.000 L 0.000 0.000 0.000 167.645 M284.752 5.616 C 285.044 5.939,285.602 6.957,285.992 7.879 C 286.388 8.817,287.360 10.168,288.195 10.944 C 289.017 11.708,289.690 12.635,289.690 13.004 C 289.690 13.373,289.923 13.764,290.207 13.874 C 290.889 14.135,292.020 16.664,292.030 17.947 C 292.034 18.505,292.248 19.264,292.506 19.632 C 293.777 21.446,291.512 22.244,284.828 22.338 C 281.878 22.380,279.011 22.420,278.458 22.428 C 277.103 22.448,275.091 21.885,274.685 21.372 C 273.690 20.118,274.068 15.675,275.291 14.250 C 275.607 13.881,275.967 13.245,276.091 12.837 C 276.215 12.428,277.012 11.481,277.864 10.732 C 278.715 9.982,279.666 8.801,279.977 8.107 C 281.095 5.611,283.576 4.316,284.752 5.616 M329.066 6.119 C 331.356 9.068,333.600 12.278,333.606 12.615 C 333.610 12.822,334.199 13.633,334.915 14.416 C 336.738 16.410,337.623 18.362,337.861 20.915 C 338.267 25.262,337.450 25.575,326.195 25.395 C 316.459 25.240,317.004 25.500,317.043 21.025 L 317.071 17.938 318.971 15.159 C 320.016 13.630,320.872 12.174,320.872 11.923 C 320.872 11.672,321.694 10.715,322.700 9.797 C 323.705 8.878,324.627 7.729,324.749 7.243 C 325.302 5.040,327.735 4.406,329.066 6.119 M307.991 16.345 C 308.728 17.037,309.542 18.131,309.800 18.776 C 310.058 19.422,310.835 20.601,311.525 21.397 C 312.892 22.972,313.331 24.275,313.002 25.775 C 312.650 27.376,310.616 28.839,309.831 28.054 C 309.563 27.786,308.140 27.690,305.352 27.753 C 299.488 27.885,298.567 27.318,299.416 24.102 C 299.823 22.559,301.284 19.783,301.691 19.781 C 301.821 19.781,302.365 18.944,302.899 17.922 C 304.485 14.886,305.953 14.432,307.991 16.345 M196.185 16.848 C 196.888 17.632,197.631 18.424,197.835 18.609 C 198.039 18.793,199.916 20.604,202.006 22.632 C 204.097 24.661,206.273 26.671,206.843 27.100 C 207.413 27.529,207.879 28.084,207.879 28.334 C 207.879 28.839,211.975 32.922,213.457 33.894 C 213.979 34.237,214.792 35.084,215.263 35.778 C 215.734 36.472,217.436 38.175,219.045 39.562 C 220.654 40.949,222.256 42.535,222.604 43.087 C 223.180 43.999,226.945 47.760,229.006 49.483 C 229.465 49.866,230.309 50.696,230.881 51.327 C 231.958 52.514,234.821 55.119,236.875 56.781 C 237.524 57.306,238.055 57.933,238.055 58.173 C 238.055 58.729,249.596 70.199,251.036 71.073 C 251.629 71.433,252.489 72.323,252.948 73.050 C 253.683 74.214,254.698 75.275,259.271 79.663 C 259.865 80.234,261.257 81.697,262.364 82.915 C 263.470 84.133,264.585 85.137,264.840 85.146 C 265.095 85.156,265.678 85.567,266.135 86.060 C 266.898 86.883,266.993 86.908,267.298 86.363 C 267.747 85.560,267.542 70.089,267.036 66.656 C 266.759 64.777,268.062 63.056,269.798 63.008 C 279.981 62.727,289.215 62.889,290.101 63.363 C 291.639 64.189,292.264 65.456,291.791 66.796 C 291.292 68.211,291.211 108.825,291.704 110.655 C 292.015 111.809,295.053 115.696,295.857 115.968 C 296.449 116.168,298.072 117.777,298.076 118.168 C 298.081 118.560,302.623 123.201,304.359 124.587 C 304.958 125.066,305.448 125.601,305.448 125.776 C 305.448 125.952,306.458 127.325,307.691 128.828 C 309.198 130.664,309.997 131.952,310.126 132.754 C 310.273 133.663,310.499 133.974,311.073 134.056 C 311.518 134.119,312.049 134.599,312.372 135.229 C 312.671 135.815,313.330 136.823,313.835 137.469 C 314.340 138.114,315.174 139.698,315.688 140.989 C 316.201 142.280,317.034 143.864,317.537 144.510 C 318.101 145.233,318.988 147.419,319.850 150.210 C 320.619 152.699,321.692 156.043,322.234 157.640 C 322.776 159.237,323.219 160.926,323.219 161.395 C 323.219 161.863,323.530 163.858,323.910 165.829 C 324.891 170.911,325.106 181.393,324.250 182.449 C 323.350 183.561,322.124 183.028,319.278 180.283 C 317.902 178.956,316.563 177.668,316.302 177.420 C 316.041 177.172,315.600 176.531,315.323 175.995 C 315.046 175.459,314.677 175.021,314.504 175.021 C 314.248 175.021,312.321 173.153,309.234 169.914 C 309.012 169.680,308.238 169.036,307.515 168.483 C 306.792 167.930,305.848 166.968,305.418 166.346 C 304.336 164.784,294.307 154.838,292.666 153.701 C 291.930 153.191,291.013 152.310,290.628 151.743 C 289.232 149.687,279.768 140.235,277.352 138.485 C 276.629 137.961,275.681 136.957,275.246 136.253 C 274.341 134.788,264.520 125.014,262.593 123.660 C 261.888 123.165,260.870 122.109,260.329 121.313 C 259.788 120.517,259.218 119.811,259.061 119.743 C 258.904 119.675,257.320 118.151,255.540 116.355 C 253.761 114.560,251.754 112.684,251.080 112.188 C 250.407 111.692,249.766 110.953,249.657 110.547 C 249.548 110.140,248.705 109.299,247.783 108.678 C 246.862 108.057,245.804 107.057,245.433 106.456 C 244.542 105.015,234.528 94.986,232.747 93.752 C 231.982 93.222,231.015 92.339,230.598 91.790 C 230.014 91.019,226.388 87.144,223.380 84.076 C 223.245 83.938,222.267 83.002,221.207 81.995 C 220.147 80.987,219.279 80.006,219.279 79.813 C 219.279 79.621,219.073 79.464,218.822 79.464 C 218.318 79.464,214.920 76.252,214.920 75.775 C 214.920 75.611,214.217 74.827,213.356 74.034 C 212.496 73.240,211.478 72.219,211.093 71.765 C 209.554 69.949,203.620 64.285,202.588 63.647 C 201.983 63.273,200.954 62.268,200.303 61.414 C 198.689 59.301,194.192 54.652,193.762 54.652 C 193.570 54.652,192.871 55.256,192.209 55.993 C 191.547 56.731,190.836 57.334,190.630 57.334 C 190.424 57.334,190.085 57.787,189.876 58.340 C 189.623 59.013,189.266 59.346,188.801 59.346 C 188.367 59.346,187.799 59.818,187.287 60.604 C 186.300 62.120,175.938 72.422,175.400 72.422 C 175.192 72.422,175.021 72.694,175.021 73.026 C 175.021 73.794,174.386 74.434,173.625 74.434 C 173.299 74.434,172.856 74.774,172.640 75.189 C 172.100 76.225,161.248 87.127,160.520 87.364 C 160.197 87.470,159.933 87.817,159.933 88.137 C 159.933 88.892,159.288 89.522,158.516 89.522 C 158.180 89.522,157.767 89.862,157.599 90.277 C 157.238 91.165,146.700 101.666,145.599 102.233 C 145.184 102.447,144.845 102.888,144.845 103.214 C 144.845 103.976,144.205 104.610,143.437 104.610 C 143.105 104.610,142.833 104.808,142.833 105.050 C 142.833 105.589,131.314 117.143,130.633 117.287 C 130.364 117.344,129.996 117.814,129.816 118.332 C 129.610 118.924,129.164 119.355,128.616 119.492 C 128.137 119.613,127.743 119.897,127.740 120.124 C 127.734 120.620,116.488 131.839,115.447 132.388 C 115.045 132.600,114.667 133.113,114.608 133.528 C 114.539 134.021,114.232 134.322,113.726 134.393 C 113.300 134.454,112.863 134.755,112.754 135.064 C 112.522 135.723,100.775 147.527,100.352 147.527 C 100.193 147.527,99.892 147.980,99.684 148.533 C 99.427 149.213,99.075 149.539,98.596 149.539 C 98.175 149.539,97.765 149.845,97.584 150.293 C 97.242 151.142,85.747 162.615,85.239 162.615 C 85.059 162.615,84.821 163.068,84.711 163.621 C 84.550 164.424,84.337 164.627,83.653 164.627 C 83.140 164.627,82.710 164.863,82.583 165.214 C 82.316 165.953,71.104 177.194,70.375 177.454 C 70.078 177.559,69.742 178.111,69.629 178.680 C 69.479 179.428,69.233 179.715,68.743 179.715 C 68.369 179.715,68.064 179.882,68.064 180.086 C 68.064 182.165,64.333 183.911,63.237 182.345 C 61.722 180.183,64.005 157.488,66.048 154.401 C 66.170 154.216,66.551 153.085,66.895 151.886 C 67.239 150.687,67.793 149.347,68.126 148.908 C 68.459 148.469,68.890 147.489,69.083 146.729 C 69.515 145.031,71.627 140.561,72.429 139.648 C 72.753 139.279,73.587 137.882,74.282 136.544 C 74.977 135.206,75.748 133.942,75.996 133.737 C 76.243 133.531,76.446 133.160,76.446 132.911 C 76.446 131.838,82.730 124.772,83.712 124.740 C 83.928 124.733,84.205 124.267,84.329 123.705 C 84.470 123.061,84.972 122.409,85.683 121.945 C 86.305 121.539,86.995 120.868,87.218 120.454 C 87.440 120.040,88.125 119.519,88.740 119.297 C 89.355 119.075,89.858 118.713,89.858 118.494 C 89.858 117.930,98.211 109.640,98.779 109.640 C 99.036 109.640,99.246 109.409,99.246 109.126 C 99.246 108.844,100.000 107.882,100.922 106.989 C 101.844 106.095,102.598 105.223,102.598 105.049 C 102.598 104.876,103.127 104.483,103.772 104.175 C 104.417 103.867,104.946 103.465,104.946 103.281 C 104.946 102.833,113.232 94.552,113.680 94.552 C 113.874 94.552,114.249 94.034,114.513 93.402 C 114.777 92.770,115.259 92.167,115.585 92.062 C 115.911 91.956,116.542 91.333,116.988 90.677 C 117.434 90.021,118.302 89.274,118.916 89.017 C 119.531 88.761,120.034 88.423,120.034 88.267 C 120.034 88.035,122.304 85.704,128.940 79.128 C 129.219 78.852,130.385 77.634,131.530 76.423 C 132.676 75.211,133.880 74.121,134.207 74.000 C 134.534 73.878,134.887 73.555,134.992 73.281 C 135.249 72.612,143.474 64.376,143.885 64.376 C 144.063 64.376,144.367 63.923,144.560 63.370 C 144.753 62.816,145.065 62.364,145.255 62.364 C 145.444 62.364,146.332 61.647,147.228 60.771 C 148.125 59.895,149.124 58.918,149.450 58.600 C 149.776 58.282,151.903 56.132,154.178 53.822 C 156.453 51.513,158.447 49.623,158.609 49.623 C 158.771 49.623,159.083 49.283,159.303 48.868 C 159.885 47.769,163.880 43.923,164.440 43.923 C 164.702 43.923,165.017 43.609,165.138 43.226 C 165.260 42.843,166.575 41.372,168.062 39.957 C 169.548 38.542,171.370 36.744,172.109 35.960 C 172.849 35.176,173.625 34.535,173.835 34.535 C 174.044 34.535,174.407 34.007,174.640 33.361 C 174.873 32.716,175.224 32.188,175.420 32.188 C 175.615 32.188,176.506 31.433,177.399 30.511 C 178.293 29.589,179.245 28.835,179.514 28.835 C 179.784 28.835,180.092 28.562,180.198 28.228 C 180.342 27.774,185.865 22.191,189.170 19.159 C 189.299 19.041,190.139 18.152,191.036 17.184 C 193.200 14.849,194.325 14.776,196.185 16.848 M283.102 29.170 C 284.507 30.715,286.218 33.013,287.123 34.569 C 287.616 35.418,288.320 36.385,288.687 36.717 C 289.054 37.049,289.355 37.499,289.355 37.717 C 289.355 37.935,290.097 39.039,291.005 40.170 C 291.913 41.301,292.765 42.570,292.898 42.990 C 293.031 43.409,293.328 43.904,293.557 44.089 C 294.099 44.527,294.634 47.085,294.906 50.540 L 295.123 53.301 294.167 53.678 C 292.487 54.339,267.968 54.197,267.293 53.522 C 265.834 52.063,266.279 45.421,267.941 43.826 C 268.285 43.496,268.567 42.982,268.567 42.683 C 268.567 42.384,269.359 41.284,270.327 40.238 C 271.837 38.607,275.414 33.420,277.370 30.025 C 277.694 29.463,278.524 28.359,279.214 27.571 L 280.469 26.140 281.405 27.236 C 281.919 27.839,282.683 28.709,283.102 29.170 M339.648 28.500 C 339.648 28.684,339.308 28.833,338.894 28.830 C 338.284 28.826,338.235 28.762,338.642 28.500 C 339.292 28.079,339.648 28.079,339.648 28.500 M310.007 32.700 C 310.124 33.165,310.504 33.699,310.852 33.885 C 311.200 34.071,311.871 34.986,312.344 35.919 C 312.816 36.851,313.857 38.418,314.658 39.400 C 315.458 40.383,316.212 41.689,316.334 42.303 C 316.455 42.917,316.717 43.841,316.915 44.355 C 317.685 46.351,314.243 47.949,310.197 47.473 C 309.196 47.356,307.510 47.430,306.451 47.639 C 301.385 48.635,298.462 45.331,301.030 41.510 C 301.340 41.050,302.182 39.783,302.903 38.694 C 303.623 37.605,304.647 36.213,305.177 35.600 C 305.708 34.987,306.516 33.893,306.973 33.169 C 308.011 31.524,309.648 31.271,310.007 32.700 M195.090 76.420 C 195.762 76.959,202.875 83.995,210.897 92.056 C 218.919 100.116,226.312 107.510,227.326 108.486 C 228.340 109.462,243.051 124.162,260.017 141.153 C 276.982 158.144,291.683 172.828,292.684 173.785 C 294.781 175.788,297.162 178.177,299.635 180.759 C 300.586 181.752,305.392 186.563,310.314 191.450 C 315.236 196.337,319.550 200.695,319.900 201.135 C 320.800 202.266,320.906 254.067,320.010 254.963 C 319.082 255.891,67.894 255.755,67.397 254.827 C 67.154 254.372,67.071 245.807,67.134 227.571 L 67.225 200.979 68.064 199.940 C 68.525 199.369,69.292 198.665,69.768 198.375 C 70.244 198.086,71.753 196.690,73.121 195.274 C 74.489 193.857,81.115 187.137,87.846 180.340 C 94.577 173.543,100.310 167.749,100.587 167.464 C 100.863 167.179,104.484 163.582,108.634 159.471 C 112.783 155.359,116.329 151.824,116.513 151.615 C 116.697 151.406,119.715 148.440,123.219 145.024 C 126.723 141.608,129.701 138.699,129.838 138.560 C 141.193 127.011,144.096 124.100,144.510 123.854 C 144.786 123.689,145.616 122.801,146.354 121.880 C 147.091 120.959,148.520 119.450,149.528 118.527 C 150.536 117.604,153.436 114.811,155.972 112.322 C 158.509 109.832,160.738 107.645,160.928 107.460 C 161.117 107.276,165.737 102.598,171.195 97.066 C 176.652 91.534,181.217 86.910,181.338 86.790 C 181.460 86.671,183.009 85.162,184.780 83.437 C 186.552 81.713,188.211 80.000,188.468 79.631 C 189.214 78.560,193.111 75.471,193.749 75.445 C 193.815 75.442,194.418 75.881,195.090 76.420 M185.257 137.817 C 183.787 138.354,182.171 139.099,181.666 139.472 C 181.161 139.845,180.665 140.151,180.564 140.151 C 178.799 140.151,171.005 148.939,170.999 150.936 C 170.998 151.243,170.884 151.545,170.746 151.607 C 170.151 151.871,169.352 154.236,169.150 156.329 L 168.932 158.592 179.185 158.592 L 189.438 158.592 189.438 147.898 C 189.438 135.195,189.833 136.146,185.257 137.817 M198.156 137.228 C 197.728 137.575,197.653 139.196,197.653 148.030 L 197.653 158.424 208.042 158.424 C 219.936 158.424,219.159 158.669,218.093 155.267 C 216.815 151.185,214.870 147.396,213.446 146.214 C 213.150 145.969,212.909 145.623,212.909 145.446 C 212.909 145.004,208.810 141.158,208.339 141.157 C 208.132 141.157,207.788 140.948,207.576 140.692 C 207.038 140.044,202.327 137.748,200.503 137.244 C 198.650 136.732,198.765 136.733,198.156 137.228 M169.028 166.605 C 168.495 166.943,168.444 168.345,168.567 179.296 L 168.650 186.756 179.044 186.756 L 189.438 186.756 189.438 176.530 L 189.438 166.303 179.464 166.309 C 173.977 166.311,169.281 166.445,169.028 166.605 M197.944 166.557 C 197.673 166.735,197.577 169.655,197.608 176.697 L 197.653 186.588 208.136 186.677 L 218.618 186.766 218.530 176.618 L 218.441 166.471 208.382 166.390 C 202.850 166.345,198.153 166.420,197.944 166.557 M26.153 290.307 C 27.897 291.214,29.505 292.637,29.505 293.273 C 29.505 293.515,29.632 293.713,29.787 293.713 C 30.163 293.713,30.902 297.087,30.930 298.926 C 30.960 300.888,30.493 301.367,28.568 301.350 C 26.503 301.331,26.153 300.998,26.153 299.051 C 26.153 292.830,17.031 291.777,15.769 297.852 C 14.858 302.243,17.346 305.123,24.476 307.929 C 25.978 308.520,29.505 311.388,29.505 312.018 C 29.505 312.277,29.627 312.490,29.775 312.490 C 30.460 312.490,31.185 315.789,31.184 318.902 C 31.181 323.708,30.218 325.917,27.220 327.993 L 25.650 329.080 20.956 329.065 C 15.178 329.046,13.565 328.280,11.711 324.672 C 11.064 323.413,10.655 318.910,11.112 318.092 C 11.651 317.130,15.026 317.278,15.230 318.273 C 16.420 324.073,16.815 324.506,21.037 324.633 C 25.540 324.769,27.745 320.193,25.582 315.201 C 25.048 313.969,21.519 311.148,20.511 311.148 C 20.155 311.148,18.060 310.109,17.771 309.789 C 17.678 309.687,16.924 309.259,16.094 308.838 C 14.452 308.006,12.070 305.884,12.070 305.254 C 12.070 305.037,11.844 304.672,11.567 304.443 C 10.720 303.739,10.853 295.480,11.739 293.780 C 13.822 289.785,21.561 287.919,26.153 290.307 M277.016 289.729 C 280.396 290.443,284.790 293.283,285.773 295.390 C 285.902 295.666,286.298 296.370,286.652 296.954 C 288.313 299.687,289.013 314.021,287.743 319.301 C 287.021 322.306,282.266 327.902,280.424 327.915 C 280.265 327.916,279.681 328.166,279.128 328.471 C 277.026 329.628,268.818 329.300,266.072 327.948 C 262.449 326.164,260.025 323.446,258.567 319.531 C 257.858 317.628,257.752 300.706,258.444 300.013 C 258.664 299.794,258.843 299.342,258.843 299.008 C 258.843 293.247,269.032 288.045,277.016 289.729 M52.562 290.109 C 52.748 290.339,52.984 291.132,53.086 291.869 C 53.626 295.776,54.364 301.969,54.625 304.778 C 54.787 306.530,55.086 308.388,55.289 308.907 C 55.492 309.426,55.658 310.648,55.658 311.623 C 55.658 312.598,55.810 313.833,55.995 314.367 C 56.181 314.902,56.463 316.471,56.622 317.854 C 56.856 319.883,56.921 320.071,56.956 318.829 C 56.980 317.983,57.224 316.549,57.498 315.644 C 57.773 314.739,58.001 313.244,58.005 312.322 C 58.009 311.400,58.237 309.905,58.512 309.000 C 58.786 308.094,59.011 306.784,59.011 306.088 C 59.011 305.391,59.174 304.397,59.374 303.878 C 59.573 303.359,59.877 301.802,60.048 300.419 C 60.700 295.149,61.199 292.077,61.442 291.838 C 61.580 291.702,61.693 291.254,61.693 290.843 C 61.693 289.976,62.266 289.690,64.001 289.690 C 65.407 289.690,66.052 290.165,66.052 291.199 C 66.052 291.586,66.197 292.048,66.375 292.226 C 66.553 292.404,66.849 294.056,67.032 295.897 C 67.216 297.739,67.598 300.604,67.881 302.263 C 68.165 303.923,68.547 306.262,68.731 307.460 C 68.915 308.659,69.214 310.243,69.395 310.981 C 69.576 311.718,69.728 313.016,69.732 313.864 C 69.737 314.713,69.902 315.871,70.100 316.439 C 70.298 317.006,70.582 318.198,70.731 319.087 L 71.002 320.704 71.050 318.692 C 71.076 317.586,71.253 316.077,71.444 315.339 C 71.635 314.602,71.921 312.640,72.079 310.981 C 72.481 306.767,73.064 302.232,73.457 300.251 C 73.640 299.329,73.923 297.217,74.088 295.557 C 74.634 290.029,74.819 289.690,77.284 289.690 C 80.185 289.690,80.137 289.438,78.782 297.569 C 78.567 298.860,78.259 300.972,78.098 302.263 C 77.936 303.554,77.573 305.893,77.290 307.460 C 77.006 309.028,76.618 311.653,76.428 313.294 C 76.237 314.935,75.936 316.547,75.760 316.876 C 75.584 317.206,75.435 318.201,75.428 319.089 C 75.422 319.978,75.201 321.685,74.937 322.883 C 74.673 324.082,74.452 325.639,74.446 326.342 C 74.425 328.660,74.088 328.919,71.097 328.919 C 67.643 328.919,67.393 328.805,67.393 327.228 C 67.393 326.522,67.229 325.520,67.029 325.001 C 66.829 324.482,66.533 322.699,66.372 321.039 C 66.102 318.275,65.819 316.267,64.624 308.665 C 63.981 304.574,63.352 306.135,62.340 314.334 C 62.158 315.809,61.863 317.453,61.684 317.988 C 61.504 318.523,61.351 319.730,61.343 320.670 C 61.335 321.611,61.111 322.984,60.845 323.722 C 60.580 324.459,60.360 325.639,60.357 326.342 C 60.348 328.676,60.021 328.919,56.887 328.919 C 53.749 328.919,53.311 328.674,53.311 326.922 C 53.311 326.266,53.156 325.202,52.966 324.558 C 52.776 323.914,52.476 322.104,52.299 320.536 C 52.123 318.969,51.748 316.479,51.468 315.004 C 50.983 312.457,50.214 307.330,49.657 302.934 C 49.355 300.547,48.763 297.351,48.095 294.497 C 47.506 291.979,47.481 290.625,48.013 290.092 C 48.550 289.555,52.125 289.568,52.562 290.109 M114.356 290.037 C 114.862 290.308,115.004 290.746,115.004 292.037 C 115.004 294.314,114.790 294.384,107.833 294.384 L 101.958 294.384 101.799 295.474 C 101.711 296.073,101.667 298.902,101.700 301.760 L 101.760 306.957 107.125 307.125 C 113.323 307.319,113.766 307.472,113.766 309.418 C 113.766 311.736,113.623 311.792,107.342 311.895 L 101.760 311.987 101.650 317.157 C 101.589 320.001,101.634 322.830,101.749 323.444 L 101.958 324.560 108.079 324.560 C 114.852 324.560,115.004 324.605,115.004 326.611 C 115.004 329.056,115.542 328.919,105.983 328.919 C 99.729 328.919,97.258 328.808,96.966 328.516 C 96.225 327.775,96.403 290.487,97.150 290.052 C 97.946 289.589,113.493 289.575,114.356 290.037 M150.629 290.157 C 151.491 290.811,151.447 293.566,150.567 294.037 C 150.191 294.238,147.457 294.384,144.059 294.384 L 138.199 294.384 138.085 296.363 C 138.023 297.452,138.047 300.281,138.139 302.650 L 138.307 306.957 143.657 307.050 C 149.612 307.153,149.526 307.117,149.534 309.489 C 149.542 311.764,149.405 311.818,143.688 311.824 C 140.913 311.827,138.491 311.940,138.307 312.076 C 138.098 312.229,138.009 314.632,138.070 318.441 L 138.168 324.560 144.290 324.560 C 148.603 324.560,150.530 324.679,150.813 324.962 C 151.431 325.580,151.333 328.467,150.685 328.715 C 149.550 329.151,133.190 328.941,133.017 328.489 C 132.657 327.552,132.743 291.046,133.106 290.367 C 133.566 289.509,149.523 289.317,150.629 290.157 M187.113 290.037 C 187.620 290.308,187.762 290.746,187.762 292.037 C 187.762 294.175,187.362 294.384,183.280 294.384 C 179.325 294.384,179.750 292.268,179.763 311.887 C 179.775 330.332,179.973 328.919,177.384 328.919 C 174.822 328.919,175.021 330.414,175.021 311.121 L 175.021 294.384 171.646 294.384 C 167.444 294.384,166.974 294.165,166.974 292.212 C 166.974 289.710,167.057 289.690,177.465 289.690 C 183.028 289.690,186.713 289.822,187.113 290.037 M213.719 289.893 C 214.181 290.071,214.250 291.066,214.250 297.585 C 214.250 303.213,214.354 305.139,214.669 305.336 C 215.063 305.582,227.242 305.540,227.645 305.291 C 227.748 305.227,227.878 301.808,227.933 297.692 C 228.005 292.350,228.148 290.137,228.434 289.955 C 229.012 289.587,235.632 289.630,235.862 290.003 C 236.120 290.421,236.128 328.176,235.870 328.593 C 235.559 329.096,228.431 329.010,228.100 328.500 C 227.951 328.269,227.875 324.959,227.930 321.144 C 228.054 312.731,228.726 313.479,221.077 313.514 C 213.568 313.547,214.281 312.726,214.172 321.467 L 214.082 328.751 210.255 328.846 C 207.992 328.903,206.289 328.803,206.089 328.603 C 205.597 328.112,205.754 290.734,206.250 290.136 C 206.635 289.672,212.634 289.477,213.719 289.893 M320.134 290.092 C 320.355 290.313,320.536 290.833,320.536 291.246 C 320.536 291.659,320.687 292.091,320.872 292.205 C 321.056 292.318,321.208 292.742,321.209 293.146 C 321.210 293.550,321.437 294.313,321.712 294.841 C 321.988 295.370,322.213 296.096,322.213 296.456 C 322.213 296.816,322.390 297.440,322.607 297.843 C 322.824 298.245,323.117 299.103,323.259 299.749 C 323.729 301.891,324.318 303.927,324.777 304.996 C 325.027 305.577,325.231 306.361,325.231 306.737 C 325.231 307.113,325.367 307.505,325.534 307.608 C 325.702 307.712,325.942 308.550,326.069 309.472 C 326.195 310.394,326.436 311.232,326.603 311.335 C 326.770 311.439,326.907 311.883,326.907 312.322 C 326.907 313.835,327.478 313.468,328.100 311.556 C 328.443 310.502,328.824 309.489,328.945 309.304 C 329.067 309.120,329.272 308.385,329.401 307.670 C 329.530 306.956,329.758 306.126,329.908 305.826 C 330.058 305.526,330.357 304.602,330.571 303.772 C 330.786 302.942,331.099 301.811,331.267 301.257 C 331.577 300.239,332.120 298.407,333.105 295.054 C 333.403 294.040,333.775 292.616,333.932 291.889 C 334.089 291.162,334.487 290.370,334.817 290.129 C 335.557 289.588,344.052 289.511,345.035 290.037 C 345.949 290.526,346.064 328.365,345.153 328.715 C 343.898 329.197,338.050 328.935,337.840 328.388 C 337.728 328.097,337.619 322.778,337.597 316.569 C 337.576 310.361,337.484 305.583,337.394 305.951 C 337.303 306.320,337.108 306.773,336.960 306.957 C 336.811 307.142,336.582 307.896,336.449 308.634 C 336.316 309.371,336.094 310.126,335.956 310.310 C 335.630 310.745,333.948 315.664,333.607 317.184 C 333.327 318.430,332.782 320.031,332.049 321.761 C 331.802 322.342,331.601 323.040,331.601 323.312 C 331.601 324.287,330.660 324.588,327.440 324.643 C 323.259 324.714,323.018 324.467,321.978 319.028 C 321.872 318.474,321.580 317.724,321.329 317.360 C 321.077 316.997,320.867 316.393,320.861 316.019 C 320.855 315.645,320.629 315.047,320.358 314.689 C 320.087 314.331,319.866 313.644,319.866 313.163 C 319.866 312.682,319.743 312.145,319.594 311.970 C 319.444 311.795,318.964 310.526,318.527 309.151 C 318.090 307.775,317.695 306.795,317.648 306.971 C 317.602 307.148,317.505 312.011,317.433 317.778 C 317.352 324.234,317.171 328.394,316.962 328.604 C 316.763 328.803,315.177 328.904,313.131 328.847 L 309.640 328.751 309.553 309.493 C 309.485 294.309,309.556 290.179,309.888 289.968 C 310.593 289.521,319.673 289.631,320.134 290.092 M395.266 289.993 C 395.887 290.387,396.102 295.939,395.539 297.042 L 395.138 297.826 386.002 297.763 L 376.865 297.699 376.865 301.574 L 376.865 305.448 384.325 305.454 C 393.162 305.460,392.749 305.299,392.908 308.790 C 393.136 313.813,393.588 313.568,384.158 313.512 L 376.865 313.468 376.865 317.170 L 376.865 320.872 385.772 320.872 C 390.995 320.872,394.935 321.009,395.298 321.203 C 395.842 321.494,396.092 326.312,395.685 328.667 C 395.624 329.019,369.089 328.974,368.532 328.621 C 367.761 328.133,367.938 290.682,368.714 290.109 C 369.387 289.612,394.491 289.503,395.266 289.993 M271.092 297.964 C 267.547 298.558,266.890 300.356,266.890 309.466 C 266.890 319.367,267.734 320.872,273.287 320.872 C 278.414 320.872,279.025 319.730,279.201 309.812 C 279.393 299.013,277.894 296.823,271.092 297.964 " stroke="none" fill="#fbfbfa" fill-rule="evenodd"></path><path id="path3" d="M192.904 75.864 C 191.797 76.496,188.994 78.877,188.468 79.631 C 188.211 80.000,186.552 81.713,184.780 83.437 C 183.009 85.162,181.460 86.671,181.338 86.790 C 181.217 86.910,176.652 91.534,171.195 97.066 C 165.737 102.598,161.117 107.276,160.928 107.460 C 160.738 107.645,158.509 109.832,155.972 112.322 C 153.436 114.811,150.536 117.604,149.528 118.527 C 148.520 119.450,147.091 120.959,146.354 121.880 C 145.616 122.801,144.786 123.689,144.510 123.854 C 144.096 124.100,141.193 127.011,129.838 138.560 C 129.701 138.699,126.723 141.608,123.219 145.024 C 119.715 148.440,116.697 151.406,116.513 151.615 C 116.329 151.824,112.783 155.359,108.634 159.471 C 104.484 163.582,100.863 167.179,100.587 167.464 C 100.310 167.749,94.577 173.543,87.846 180.340 C 81.115 187.137,74.489 193.857,73.121 195.274 C 71.753 196.690,70.244 198.086,69.768 198.375 C 69.292 198.665,68.525 199.369,68.064 199.940 L 67.225 200.979 67.134 227.700 C 67.051 251.787,67.095 254.474,67.577 254.956 C 68.392 255.771,319.195 255.778,320.010 254.963 C 320.906 254.067,320.800 202.266,319.900 201.135 C 319.550 200.695,315.236 196.337,310.314 191.450 C 305.392 186.563,300.586 181.752,299.635 180.759 C 297.162 178.177,294.781 175.788,292.684 173.785 C 291.683 172.828,276.982 158.144,260.017 141.153 C 243.051 124.162,228.340 109.462,227.326 108.486 C 226.312 107.510,218.919 100.116,210.897 92.056 C 198.103 79.199,194.208 75.426,193.749 75.445 C 193.683 75.448,193.303 75.636,192.904 75.864 M257.049 139.231 L 319.870 202.016 319.784 228.167 L 319.698 254.317 193.797 254.317 L 67.896 254.317 67.810 228.199 C 67.712 198.221,67.322 201.572,71.316 198.050 C 72.610 196.910,74.256 195.315,74.974 194.505 C 76.038 193.306,108.288 161.031,112.535 156.915 C 113.201 156.270,123.973 145.482,136.471 132.942 C 148.970 120.402,160.006 109.388,160.994 108.466 C 161.983 107.544,163.547 105.960,164.470 104.946 C 165.393 103.931,167.126 102.185,168.321 101.066 C 169.517 99.946,171.400 98.060,172.506 96.875 C 173.613 95.689,175.499 93.814,176.697 92.707 C 177.896 91.601,179.707 89.790,180.721 88.684 C 181.735 87.577,183.395 85.889,184.409 84.933 C 185.423 83.976,187.732 81.675,189.539 79.820 C 191.636 77.667,193.079 76.446,193.527 76.446 C 194.013 76.446,213.552 95.758,257.049 139.231 M186.273 136.641 C 185.915 136.912,185.343 137.133,185.002 137.133 C 183.435 137.133,177.817 140.742,175.096 143.496 C 170.469 148.181,166.581 157.349,168.535 158.970 C 169.279 159.587,188.903 159.650,189.740 159.037 C 190.487 158.491,190.558 137.575,189.816 136.682 C 189.242 135.990,187.165 135.966,186.273 136.641 M197.374 136.351 C 196.972 136.753,197.112 158.864,197.517 159.115 C 197.719 159.239,202.457 159.355,208.045 159.371 C 219.641 159.405,219.486 159.438,219.153 157.010 C 218.319 150.921,214.303 144.426,209.053 140.674 C 204.946 137.739,198.406 135.319,197.374 136.351 M188.908 137.002 C 189.376 137.181,189.438 138.457,189.438 147.898 L 189.438 158.592 179.185 158.592 L 168.932 158.592 169.150 156.329 C 169.352 154.236,170.151 151.871,170.746 151.607 C 170.884 151.545,170.998 151.243,170.999 150.936 C 171.005 148.939,178.799 140.151,180.564 140.151 C 180.665 140.151,181.161 139.845,181.666 139.472 C 183.258 138.295,188.034 136.666,188.908 137.002 M200.503 137.244 C 202.327 137.748,207.038 140.044,207.576 140.692 C 207.788 140.948,208.132 141.157,208.339 141.157 C 208.810 141.158,212.909 145.004,212.909 145.446 C 212.909 145.623,213.150 145.969,213.446 146.214 C 214.870 147.396,216.815 151.185,218.093 155.267 C 219.159 158.669,219.936 158.424,208.042 158.424 L 197.653 158.424 197.653 148.030 C 197.653 135.911,197.518 136.420,200.503 137.244 M206.706 165.633 L 197.318 165.801 197.229 176.362 C 197.147 185.994,197.190 186.961,197.712 187.343 C 198.649 188.029,217.876 187.936,218.869 187.240 C 219.774 186.606,220.066 167.384,219.189 166.185 C 218.650 165.447,218.200 165.428,206.706 165.633 M168.368 165.928 C 167.616 166.405,167.793 186.772,168.555 187.343 C 169.438 188.005,189.208 187.941,189.761 187.274 C 190.227 186.712,190.457 168.133,190.018 166.555 L 189.761 165.633 179.290 165.638 C 173.530 165.641,168.616 165.771,168.368 165.928 M189.438 176.530 L 189.438 186.756 179.044 186.756 L 168.650 186.756 168.567 179.296 C 168.444 168.345,168.495 166.943,169.028 166.605 C 169.281 166.445,173.977 166.311,179.464 166.309 L 189.438 166.303 189.438 176.530 M218.530 176.618 L 218.618 186.766 208.136 186.677 L 197.653 186.588 197.608 176.697 C 197.577 169.655,197.673 166.735,197.944 166.557 C 198.153 166.420,202.850 166.345,208.382 166.390 L 218.441 166.471 218.530 176.618 M17.354 289.718 C 15.039 290.264,12.771 291.944,11.651 293.943 C 10.846 295.380,10.779 303.788,11.567 304.443 C 11.844 304.672,12.070 305.037,12.070 305.254 C 12.070 305.884,14.452 308.006,16.094 308.838 C 16.924 309.259,17.678 309.687,17.771 309.789 C 18.060 310.109,20.155 311.148,20.511 311.148 C 20.698 311.148,21.779 311.762,22.915 312.513 C 25.602 314.289,26.153 315.378,26.153 318.918 C 26.153 323.308,24.840 324.730,20.791 324.725 C 17.021 324.721,16.296 323.881,15.220 318.273 C 15.055 317.412,11.687 317.119,11.190 317.922 C 10.722 318.680,11.066 323.415,11.675 324.602 C 13.522 328.197,15.335 329.054,21.102 329.062 L 25.650 329.067 27.292 327.899 C 28.195 327.257,29.101 326.431,29.304 326.065 C 29.507 325.698,29.756 325.323,29.858 325.231 C 31.183 324.029,31.674 316.756,30.611 314.089 C 29.812 312.087,27.526 309.456,25.985 308.767 C 25.616 308.603,25.088 308.333,24.811 308.168 C 24.535 308.004,23.707 307.589,22.973 307.246 C 16.489 304.218,14.802 302.049,15.724 297.926 C 16.370 295.043,17.230 294.318,20.234 294.125 C 24.318 293.863,26.153 295.390,26.153 299.051 C 26.153 301.006,26.527 301.361,28.505 301.284 C 30.837 301.194,30.950 301.037,30.774 298.111 C 30.362 291.282,24.984 287.919,17.354 289.718 M269.221 289.811 C 264.335 290.864,258.843 295.731,258.843 299.008 C 258.843 299.342,258.697 299.761,258.518 299.940 C 258.046 300.412,258.006 317.922,258.475 318.799 C 258.678 319.177,258.843 319.787,258.843 320.155 C 258.843 320.523,259.070 321.050,259.346 321.327 C 259.623 321.603,259.849 322.051,259.849 322.321 C 259.849 322.591,260.717 323.696,261.777 324.776 C 268.395 331.518,280.995 330.590,285.990 322.993 C 287.943 320.022,288.178 318.571,288.178 309.472 C 288.178 301.212,287.920 299.056,286.692 297.024 C 286.315 296.402,285.910 295.693,285.792 295.450 C 285.297 294.433,281.449 291.031,280.794 291.031 C 280.671 291.031,280.095 290.820,279.514 290.561 C 276.758 289.337,272.774 289.046,269.221 289.811 M48.030 290.074 C 47.489 290.617,47.501 291.679,48.076 294.195 C 48.331 295.313,48.790 297.737,49.096 299.581 C 49.402 301.425,49.805 303.839,49.992 304.946 C 50.179 306.052,50.467 308.089,50.632 309.472 C 50.797 310.855,51.173 313.269,51.468 314.837 C 51.762 316.404,52.142 318.961,52.312 320.520 C 52.482 322.078,52.777 323.798,52.966 324.342 C 53.156 324.886,53.311 325.957,53.311 326.722 C 53.311 328.667,53.701 328.919,56.707 328.919 C 59.831 328.919,60.352 328.553,60.352 326.358 C 60.352 325.529,60.504 324.567,60.690 324.219 C 60.877 323.871,61.174 322.334,61.352 320.804 C 62.823 308.150,63.945 303.945,64.637 308.494 C 64.873 310.046,65.289 312.749,65.560 314.501 C 65.832 316.253,66.194 319.044,66.365 320.704 C 66.535 322.364,66.837 324.249,67.034 324.893 C 67.232 325.537,67.393 326.615,67.393 327.288 C 67.393 328.797,67.669 328.919,71.097 328.919 C 74.125 328.919,74.426 328.672,74.446 326.175 C 74.452 325.379,74.673 323.747,74.937 322.548 C 75.201 321.350,75.422 319.735,75.428 318.960 C 75.435 318.185,75.590 317.204,75.772 316.780 C 75.955 316.357,76.258 314.652,76.445 312.992 C 76.632 311.333,77.016 308.692,77.297 307.125 C 77.578 305.557,77.941 303.143,78.103 301.760 C 78.265 300.377,78.562 298.719,78.763 298.074 C 78.964 297.430,79.128 296.383,79.128 295.747 C 79.128 295.112,79.312 293.700,79.538 292.610 C 80.034 290.206,79.602 289.690,77.093 289.690 C 74.862 289.690,74.572 290.362,73.776 297.402 C 73.578 299.153,73.262 301.945,73.073 303.604 C 72.885 305.264,72.587 307.150,72.411 307.795 C 72.235 308.441,72.090 309.723,72.089 310.646 C 72.088 311.568,71.863 313.378,71.590 314.669 C 71.317 315.960,71.076 317.846,71.054 318.860 L 71.016 320.704 70.541 318.525 C 70.280 317.326,69.918 315.087,69.737 313.550 C 69.556 312.013,69.325 310.620,69.224 310.456 C 69.122 310.291,68.892 309.059,68.713 307.719 C 68.206 303.933,67.540 299.968,67.317 299.413 C 67.205 299.137,67.029 297.648,66.926 296.105 C 66.754 293.539,66.364 291.673,65.726 290.360 C 65.157 289.191,61.693 289.730,61.693 290.987 C 61.693 291.319,61.580 291.703,61.442 291.841 C 61.212 292.071,60.870 294.195,60.037 300.587 C 59.869 301.878,59.569 303.359,59.371 303.878 C 59.173 304.397,59.009 305.453,59.007 306.225 C 59.005 306.996,58.779 308.368,58.504 309.274 C 58.230 310.179,58.005 311.707,58.005 312.668 C 58.005 313.630,57.779 315.058,57.502 315.842 C 57.225 316.626,56.980 317.966,56.956 318.818 C 56.920 320.072,56.858 319.887,56.628 317.854 C 56.472 316.471,56.189 314.993,56.001 314.569 C 55.812 314.146,55.658 312.911,55.658 311.825 C 55.658 310.739,55.493 309.426,55.291 308.907 C 55.090 308.388,54.790 306.605,54.626 304.946 C 54.372 302.382,53.764 297.240,53.078 291.869 C 52.984 291.132,52.777 290.390,52.618 290.221 C 52.139 289.714,48.505 289.597,48.030 290.074 M97.569 289.934 C 97.293 290.040,96.955 290.292,96.820 290.495 C 96.371 291.167,96.512 328.063,96.966 328.516 C 97.258 328.808,99.729 328.919,105.983 328.919 C 115.542 328.919,115.004 329.056,115.004 326.611 C 115.004 324.605,114.852 324.560,108.070 324.560 C 100.780 324.560,101.528 325.383,101.665 317.519 L 101.760 311.987 107.342 311.895 C 113.553 311.793,113.579 311.783,113.711 309.544 C 113.843 307.305,113.404 307.139,107.382 307.156 C 104.573 307.165,102.121 307.077,101.935 306.962 C 101.592 306.749,101.497 295.695,101.831 294.824 C 101.961 294.484,103.329 294.384,107.853 294.384 C 114.788 294.384,115.004 294.313,115.004 292.037 C 115.004 290.746,114.862 290.308,114.356 290.037 C 113.677 289.674,98.498 289.581,97.569 289.934 M133.497 289.986 C 133.128 290.220,132.789 321.681,133.084 328.332 C 133.108 328.875,133.755 328.919,141.760 328.919 C 151.351 328.919,151.215 328.950,151.215 326.739 C 151.215 324.590,151.121 324.560,144.298 324.560 C 137.043 324.560,137.806 325.380,137.901 317.687 L 137.972 311.987 143.312 311.894 C 149.381 311.789,149.539 311.727,149.539 309.472 C 149.539 307.216,149.381 307.155,143.312 307.050 L 137.972 306.957 137.964 300.671 L 137.956 294.384 143.937 294.384 C 147.419 294.384,150.189 294.239,150.567 294.037 C 151.447 293.566,151.491 290.811,150.629 290.157 C 149.950 289.641,134.286 289.486,133.497 289.986 M167.813 290.151 C 167.359 290.483,167.174 291.056,167.152 292.199 C 167.115 294.198,167.515 294.384,171.858 294.384 L 175.021 294.384 175.021 311.249 C 175.021 330.121,174.845 328.919,177.613 328.919 C 179.903 328.919,179.685 330.675,179.791 311.316 L 179.883 294.552 183.403 294.384 C 185.339 294.292,187.112 294.094,187.343 293.945 C 188.059 293.482,187.880 290.447,187.113 290.037 C 186.057 289.472,168.601 289.575,167.813 290.151 M206.251 290.134 C 205.672 290.833,205.690 328.262,206.271 328.638 C 206.510 328.793,208.365 328.882,210.394 328.836 L 214.082 328.751 214.173 321.568 C 214.285 312.660,213.566 313.495,221.123 313.495 C 228.744 313.495,228.050 312.704,227.938 321.260 C 227.889 325.011,227.966 328.269,228.110 328.500 C 228.430 329.013,235.559 329.096,235.872 328.590 C 236.292 327.911,236.069 290.248,235.644 289.986 C 235.186 289.702,229.471 289.629,228.583 289.895 C 228.047 290.055,227.997 290.718,227.997 297.572 C 227.997 301.698,227.877 305.148,227.730 305.238 C 227.267 305.525,215.107 305.620,214.669 305.341 C 214.355 305.140,214.250 303.250,214.250 297.784 C 214.250 292.561,214.136 290.380,213.847 290.092 C 213.262 289.507,206.742 289.543,206.251 290.134 M309.845 290.147 C 309.571 290.477,309.490 295.869,309.553 309.677 L 309.640 328.751 312.992 328.836 C 317.628 328.953,317.215 329.994,317.231 318.159 C 317.245 308.247,317.463 305.369,318.030 307.628 C 318.168 308.181,318.398 308.785,318.541 308.969 C 318.683 309.153,318.906 309.872,319.036 310.565 C 319.165 311.259,319.405 311.909,319.569 312.010 C 319.732 312.111,319.866 312.502,319.866 312.878 C 319.866 313.254,320.071 314.037,320.322 314.618 C 321.394 317.104,321.639 317.783,322.095 319.531 C 322.359 320.545,322.725 321.938,322.908 322.626 C 323.092 323.317,323.562 324.049,323.957 324.261 C 324.751 324.686,330.090 324.688,330.848 324.264 C 331.299 324.012,332.969 319.745,333.619 317.184 C 334.015 315.622,334.775 313.154,335.114 312.322 C 336.087 309.941,336.295 309.336,336.295 308.895 C 336.295 308.623,336.511 307.924,336.775 307.343 C 337.039 306.762,337.324 305.985,337.407 305.616 C 337.490 305.247,337.576 310.158,337.597 316.530 C 337.643 330.037,337.276 328.919,341.660 328.919 C 346.112 328.919,345.683 331.017,345.683 309.229 L 345.683 290.344 344.823 290.017 C 343.697 289.589,335.761 289.593,334.959 290.022 C 334.617 290.205,334.235 290.846,334.110 291.447 C 333.984 292.048,333.661 293.294,333.392 294.216 C 333.122 295.138,332.744 296.496,332.551 297.234 C 332.358 297.972,332.009 299.103,331.776 299.749 C 330.781 302.506,330.257 304.323,330.258 305.010 C 330.259 305.414,330.122 305.829,329.954 305.933 C 329.785 306.037,329.540 306.757,329.409 307.533 C 329.278 308.309,329.047 309.175,328.895 309.459 C 328.743 309.743,328.368 310.781,328.061 311.765 C 327.454 313.713,327.218 313.694,326.652 311.651 C 326.094 309.637,324.257 303.476,323.703 301.760 C 323.435 300.930,323.216 299.921,323.217 299.517 C 323.218 299.113,323.080 298.696,322.909 298.591 C 322.739 298.486,322.499 297.911,322.375 297.314 C 322.045 295.717,321.092 292.710,320.250 290.612 L 319.880 289.690 315.052 289.690 C 311.387 289.690,310.133 289.800,309.845 290.147 M368.717 290.109 C 367.963 290.669,367.802 328.158,368.552 328.633 C 369.311 329.115,395.223 328.986,395.535 328.500 C 396.138 327.558,395.932 321.542,395.285 321.196 C 394.939 321.011,390.862 320.872,385.772 320.872 L 376.865 320.872 376.865 317.173 L 376.865 313.474 384.158 313.507 C 393.599 313.550,393.135 313.798,392.909 308.831 C 392.753 305.385,393.374 305.631,384.549 305.515 L 376.865 305.413 376.865 301.575 L 376.865 297.737 386.066 297.737 C 391.657 297.737,395.345 297.609,395.468 297.411 C 395.942 296.643,395.795 290.327,395.295 290.011 C 394.496 289.506,369.404 289.599,368.717 290.109 M26.461 291.216 C 29.056 292.629,29.986 294.385,29.999 297.893 L 30.008 300.587 29.046 300.697 C 26.926 300.939,26.579 300.622,26.432 298.313 C 26.178 294.330,23.081 292.308,19.077 293.510 C 15.945 294.451,15.088 295.704,15.088 299.345 C 15.088 303.682,15.976 304.545,24.781 308.758 C 28.303 310.443,30.094 313.243,30.399 317.542 C 30.951 325.320,28.219 328.583,21.155 328.583 C 16.696 328.583,12.406 326.731,12.406 324.806 C 12.406 324.634,12.171 324.000,11.885 323.396 C 11.547 322.684,11.400 321.605,11.466 320.328 L 11.567 318.357 13.244 318.357 L 14.920 318.357 15.115 320.369 C 15.465 324.000,17.106 325.406,20.969 325.385 C 25.343 325.361,26.656 323.816,26.655 318.692 C 26.655 314.012,26.132 313.393,19.130 309.780 C 11.844 306.022,9.762 301.795,11.947 295.198 C 13.533 290.412,21.145 288.323,26.461 291.216 M278.879 290.901 C 285.800 293.488,287.652 297.403,287.661 309.472 C 287.669 321.441,285.668 325.491,278.525 327.959 C 271.233 330.478,262.682 327.202,259.751 320.767 C 257.909 316.720,258.178 300.985,260.157 297.117 C 263.152 291.259,271.989 288.326,278.879 290.901 M52.435 291.450 C 52.747 293.578,53.328 298.283,53.647 301.257 C 53.824 302.917,54.198 305.859,54.476 307.795 C 54.755 309.732,55.203 313.086,55.471 315.249 C 56.294 321.865,56.734 323.586,57.119 321.682 C 57.498 319.804,58.290 314.974,58.847 311.148 C 59.156 309.028,59.610 306.236,59.855 304.946 C 60.101 303.655,60.475 301.467,60.688 300.084 C 60.900 298.701,61.327 295.985,61.635 294.049 L 62.196 290.528 63.789 290.426 C 64.665 290.370,65.381 290.387,65.381 290.464 C 65.381 290.541,65.538 291.417,65.730 292.410 C 65.922 293.404,66.305 295.801,66.581 297.737 C 66.857 299.673,67.304 302.540,67.573 304.107 C 67.842 305.675,68.280 308.391,68.547 310.142 C 69.659 317.456,70.533 322.112,70.855 322.433 C 71.159 322.738,71.589 319.971,72.922 309.137 C 73.206 306.832,73.590 304.040,73.775 302.934 C 74.068 301.185,74.451 298.113,74.988 293.210 C 75.300 290.349,75.292 290.360,77.103 290.360 C 78.011 290.360,78.833 290.489,78.930 290.646 C 79.196 291.076,78.315 297.627,76.827 306.287 C 76.446 308.500,75.899 312.045,75.610 314.166 C 75.322 316.287,74.937 318.776,74.755 319.698 C 74.573 320.620,74.280 322.639,74.103 324.185 C 73.671 327.979,73.242 328.583,70.981 328.583 C 68.740 328.583,67.727 327.925,67.732 326.469 C 67.735 325.398,67.314 322.326,66.000 313.831 C 65.615 311.341,65.110 307.871,64.877 306.119 C 64.645 304.367,64.437 302.878,64.415 302.809 C 64.187 302.093,63.344 303.986,63.046 305.886 C 62.837 307.213,62.531 308.977,62.365 309.807 C 62.199 310.637,61.821 312.976,61.525 315.004 C 61.229 317.033,60.831 319.673,60.639 320.872 C 60.447 322.070,60.163 323.930,60.008 325.005 C 59.570 328.034,59.062 328.583,56.697 328.583 C 54.093 328.583,54.132 328.659,53.140 321.684 C 52.670 318.379,52.218 315.448,52.135 315.172 C 51.974 314.633,51.557 312.005,50.777 306.622 C 50.510 304.778,50.080 301.987,49.822 300.419 C 47.992 289.321,47.925 290.360,50.466 290.360 C 52.250 290.360,52.277 290.375,52.435 291.450 M114.334 292.037 L 114.334 293.713 108.326 293.713 C 100.410 293.713,101.257 292.867,101.257 300.770 C 101.257 308.635,100.637 307.882,107.104 307.866 C 112.947 307.852,113.078 307.892,112.932 309.674 L 112.825 310.981 107.125 311.148 L 101.425 311.316 101.334 317.811 C 101.220 325.930,100.705 325.267,107.094 325.229 C 115.235 325.181,114.334 324.998,114.334 326.703 C 114.334 327.737,114.176 328.237,113.803 328.380 C 112.552 328.860,98.335 328.600,97.911 328.089 C 97.499 327.592,97.364 291.299,97.772 290.639 C 97.866 290.486,101.632 290.360,106.139 290.360 L 114.334 290.360 114.334 292.037 M150.347 291.199 C 150.463 291.660,150.463 292.414,150.347 292.875 L 150.137 293.713 144.284 293.713 C 136.458 293.713,137.132 293.056,137.138 300.682 C 137.145 308.555,136.582 307.865,143.050 307.935 C 148.918 307.999,149.204 308.071,149.204 309.480 C 149.204 310.955,148.452 311.148,142.723 311.148 C 136.516 311.148,137.133 310.350,137.133 318.373 C 137.133 325.896,136.493 325.273,144.162 325.215 C 150.865 325.164,151.522 325.460,150.198 327.935 C 149.798 328.682,135.430 328.951,134.094 328.236 C 133.436 327.884,133.022 291.231,133.669 290.584 C 133.792 290.461,137.547 290.360,142.015 290.360 L 150.137 290.360 150.347 291.199 M186.954 291.199 C 187.501 293.378,187.052 293.713,183.592 293.713 C 181.859 293.713,180.202 293.805,179.910 293.917 C 179.436 294.099,179.380 295.915,179.380 310.976 C 179.380 329.670,179.502 328.716,177.140 328.521 L 175.859 328.416 175.772 311.334 C 175.705 298.180,175.590 294.191,175.269 293.988 C 175.041 293.842,173.307 293.721,171.417 293.718 L 167.980 293.713 167.980 292.260 C 167.980 290.253,167.435 290.360,177.585 290.360 L 186.743 290.360 186.954 291.199 M213.380 290.645 C 213.477 290.802,213.577 294.084,213.601 297.938 C 213.658 307.044,212.819 306.152,221.222 306.042 L 228.164 305.951 228.332 298.240 L 228.500 290.528 232.020 290.528 L 235.541 290.528 235.627 309.228 L 235.714 327.927 234.851 328.255 C 233.614 328.726,229.574 328.664,228.902 328.164 C 228.409 327.798,228.328 326.824,228.252 320.369 L 228.164 312.992 221.292 312.901 C 212.757 312.788,213.579 311.933,213.579 320.924 C 213.579 327.467,213.540 327.910,212.931 328.236 C 212.023 328.722,207.439 328.680,206.940 328.181 C 206.502 327.743,206.328 291.018,206.762 290.584 C 207.091 290.255,213.174 290.311,213.380 290.645 M319.697 290.694 C 319.914 291.045,320.976 294.499,322.429 299.581 C 322.904 301.241,323.632 303.655,324.047 304.946 C 324.463 306.236,325.057 308.198,325.368 309.304 C 326.528 313.434,327.057 314.837,327.453 314.837 C 327.886 314.837,327.968 314.616,329.571 309.137 C 330.137 307.200,330.811 304.937,331.067 304.107 C 332.166 300.555,333.683 295.457,334.010 294.216 C 334.205 293.479,334.555 292.347,334.789 291.702 L 335.214 290.528 339.667 290.434 C 342.532 290.374,344.250 290.469,344.483 290.702 C 344.958 291.177,345.147 326.510,344.681 327.735 C 344.302 328.733,339.452 329.057,338.687 328.135 C 338.434 327.830,338.287 323.859,338.227 315.673 C 338.131 302.574,337.951 301.467,336.629 305.851 C 335.652 309.089,335.091 310.800,334.674 311.819 C 334.485 312.280,333.555 315.109,332.609 318.105 C 330.655 324.289,330.710 324.225,327.328 324.225 C 324.387 324.225,324.121 323.996,323.048 320.536 C 322.562 318.969,321.891 317.008,321.558 316.178 C 321.226 315.348,320.327 312.677,319.562 310.242 C 316.552 300.664,316.513 300.737,316.513 315.996 C 316.513 325.109,316.416 327.911,316.090 328.182 C 315.281 328.854,310.535 328.647,310.148 327.923 C 309.780 327.235,309.657 292.462,310.019 291.115 C 310.240 290.290,319.207 289.901,319.697 290.694 M395.138 293.713 L 395.138 296.899 386.038 296.988 C 375.276 297.093,376.172 296.658,376.168 301.780 C 376.163 306.471,375.484 306.107,384.241 306.119 C 392.894 306.131,392.342 305.886,392.218 309.668 L 392.121 312.657 384.419 312.747 C 380.184 312.797,376.595 312.960,376.446 313.110 C 376.104 313.452,375.998 320.618,376.327 321.150 C 376.502 321.434,379.055 321.542,385.535 321.542 C 395.968 321.542,395.306 321.304,395.306 325.063 C 395.306 326.728,395.150 327.934,394.904 328.181 C 394.326 328.758,369.798 328.758,369.220 328.181 C 368.780 327.740,368.609 291.017,369.046 290.580 C 369.171 290.455,375.093 290.392,382.206 290.440 L 395.138 290.528 395.138 293.713 M270.294 297.523 C 268.420 298.202,267.002 299.820,266.587 301.754 C 266.097 304.041,266.112 315.118,266.608 317.088 C 268.103 323.024,277.065 323.472,279.431 317.729 C 280.316 315.584,280.208 302.726,279.288 300.646 C 277.955 297.635,273.889 296.222,270.294 297.523 M277.328 299.019 C 279.057 300.635,279.286 301.838,279.286 309.304 C 279.286 319.332,278.441 320.958,273.253 320.924 C 267.713 320.888,266.890 319.405,266.890 309.465 C 266.890 301.398,267.063 300.533,269.011 298.851 C 270.743 297.355,275.654 297.454,277.328 299.019 " stroke="none" fill="#9cacb8" fill-rule="evenodd"></path><path id="path4" d="M281.621 5.938 C 281.027 6.437,280.287 7.413,279.977 8.107 C 279.666 8.801,278.715 9.982,277.864 10.732 C 277.012 11.481,276.215 12.428,276.091 12.837 C 275.967 13.245,275.607 13.881,275.291 14.250 C 274.068 15.675,273.690 20.118,274.685 21.372 C 275.091 21.885,277.103 22.448,278.458 22.428 C 279.011 22.420,281.878 22.380,284.828 22.338 C 291.512 22.244,293.777 21.446,292.506 19.632 C 292.248 19.264,292.034 18.505,292.030 17.947 C 292.020 16.664,290.889 14.135,290.207 13.874 C 289.923 13.764,289.690 13.373,289.690 13.004 C 289.690 12.635,289.017 11.708,288.195 10.944 C 287.360 10.168,286.388 8.817,285.992 7.879 C 284.694 4.810,283.560 4.306,281.621 5.938 M325.816 5.695 C 325.351 6.061,324.871 6.757,324.749 7.243 C 324.627 7.729,323.705 8.878,322.700 9.797 C 321.694 10.715,320.872 11.672,320.872 11.923 C 320.872 12.174,320.016 13.630,318.971 15.159 L 317.071 17.938 317.043 21.025 C 317.004 25.500,316.459 25.240,326.195 25.395 C 337.450 25.575,338.267 25.262,337.861 20.915 C 337.623 18.362,336.738 16.410,334.915 14.416 C 334.199 13.633,333.610 12.822,333.606 12.615 C 333.600 12.278,331.356 9.068,329.066 6.119 C 328.082 4.852,327.057 4.719,325.816 5.695 M284.902 8.570 C 285.495 9.481,286.476 10.807,287.081 11.517 C 287.686 12.226,288.285 13.081,288.411 13.416 C 288.538 13.751,288.850 14.151,289.106 14.305 C 290.377 15.072,291.395 20.021,290.455 20.866 C 289.536 21.692,277.835 21.499,276.517 20.636 C 275.359 19.877,275.230 17.434,276.278 16.094 C 276.639 15.633,276.937 15.120,276.941 14.955 C 276.946 14.789,277.455 14.035,278.074 13.278 C 278.693 12.522,279.514 11.299,279.899 10.562 C 280.789 8.854,282.871 6.614,283.410 6.784 C 283.637 6.856,284.308 7.660,284.902 8.570 M329.142 8.801 C 330.024 9.954,331.014 11.189,331.341 11.547 C 331.668 11.904,331.936 12.314,331.936 12.457 C 331.936 12.600,332.351 13.214,332.858 13.820 C 333.365 14.426,333.963 15.224,334.185 15.592 C 334.408 15.960,335.002 16.940,335.506 17.770 C 336.533 19.463,336.938 22.269,336.321 23.422 C 335.943 24.128,335.783 24.141,327.406 24.141 L 318.875 24.141 318.345 23.331 C 317.293 21.725,319.962 14.082,321.575 14.082 C 321.735 14.082,321.956 13.718,322.068 13.273 C 322.180 12.828,322.862 11.933,323.583 11.286 C 324.330 10.616,324.895 9.800,324.895 9.394 C 324.895 8.745,326.718 6.706,327.297 6.706 C 327.430 6.706,328.260 7.649,329.142 8.801 M304.743 15.589 C 304.263 15.850,303.433 16.900,302.899 17.922 C 302.365 18.944,301.821 19.781,301.691 19.781 C 301.284 19.783,299.823 22.559,299.416 24.102 C 298.567 27.318,299.488 27.885,305.352 27.753 C 308.140 27.690,309.563 27.786,309.831 28.054 C 310.616 28.839,312.650 27.376,313.002 25.775 C 313.331 24.275,312.892 22.972,311.525 21.397 C 310.835 20.601,310.058 19.422,309.800 18.776 C 308.759 16.173,306.402 14.688,304.743 15.589 M191.036 17.184 C 190.139 18.152,189.299 19.041,189.170 19.159 C 185.865 22.191,180.342 27.774,180.198 28.228 C 180.092 28.562,179.784 28.835,179.514 28.835 C 179.245 28.835,178.293 29.589,177.399 30.511 C 176.506 31.433,175.615 32.188,175.420 32.188 C 175.224 32.188,174.873 32.716,174.640 33.361 C 174.407 34.007,174.044 34.535,173.835 34.535 C 173.625 34.535,172.849 35.176,172.109 35.960 C 171.370 36.744,169.548 38.542,168.062 39.957 C 166.575 41.372,165.260 42.843,165.138 43.226 C 165.017 43.609,164.702 43.923,164.440 43.923 C 163.880 43.923,159.885 47.769,159.303 48.868 C 159.083 49.283,158.771 49.623,158.609 49.623 C 158.447 49.623,156.453 51.513,154.178 53.822 C 151.903 56.132,149.776 58.282,149.450 58.600 C 149.124 58.918,148.125 59.895,147.228 60.771 C 146.332 61.647,145.444 62.364,145.255 62.364 C 145.065 62.364,144.753 62.816,144.560 63.370 C 144.367 63.923,144.063 64.376,143.885 64.376 C 143.474 64.376,135.249 72.612,134.992 73.281 C 134.887 73.555,134.534 73.878,134.207 74.000 C 133.880 74.121,132.676 75.211,131.530 76.423 C 130.385 77.634,129.219 78.852,128.940 79.128 C 122.304 85.704,120.034 88.035,120.034 88.267 C 120.034 88.423,119.531 88.761,118.916 89.017 C 118.302 89.274,117.434 90.021,116.988 90.677 C 116.542 91.333,115.911 91.956,115.585 92.062 C 115.259 92.167,114.777 92.770,114.513 93.402 C 114.249 94.034,113.874 94.552,113.680 94.552 C 113.232 94.552,104.946 102.833,104.946 103.281 C 104.946 103.465,104.417 103.867,103.772 104.175 C 103.127 104.483,102.598 104.876,102.598 105.049 C 102.598 105.223,101.844 106.095,100.922 106.989 C 100.000 107.882,99.246 108.844,99.246 109.126 C 99.246 109.409,99.036 109.640,98.779 109.640 C 98.211 109.640,89.858 117.930,89.858 118.494 C 89.858 118.713,89.355 119.075,88.740 119.297 C 88.125 119.519,87.440 120.040,87.218 120.454 C 86.995 120.868,86.305 121.539,85.683 121.945 C 84.972 122.409,84.470 123.061,84.329 123.705 C 84.205 124.267,83.928 124.733,83.712 124.740 C 82.730 124.772,76.446 131.838,76.446 132.911 C 76.446 133.160,76.243 133.531,75.996 133.737 C 75.748 133.942,74.977 135.206,74.282 136.544 C 73.587 137.882,72.753 139.279,72.429 139.648 C 71.627 140.561,69.515 145.031,69.083 146.729 C 68.890 147.489,68.459 148.469,68.126 148.908 C 67.793 149.347,67.239 150.687,66.895 151.886 C 66.551 153.085,66.170 154.216,66.048 154.401 C 64.005 157.488,61.722 180.183,63.237 182.345 C 64.333 183.911,68.064 182.165,68.064 180.086 C 68.064 179.882,68.369 179.715,68.743 179.715 C 69.233 179.715,69.479 179.428,69.629 178.680 C 69.742 178.111,70.078 177.559,70.375 177.454 C 71.104 177.194,82.316 165.953,82.583 165.214 C 82.710 164.863,83.140 164.627,83.653 164.627 C 84.337 164.627,84.550 164.424,84.711 163.621 C 84.821 163.068,85.059 162.615,85.239 162.615 C 85.747 162.615,97.242 151.142,97.584 150.293 C 97.765 149.845,98.175 149.539,98.596 149.539 C 99.075 149.539,99.427 149.213,99.684 148.533 C 99.892 147.980,100.193 147.527,100.352 147.527 C 100.775 147.527,112.522 135.723,112.754 135.064 C 112.863 134.755,113.300 134.454,113.726 134.393 C 114.232 134.322,114.539 134.021,114.608 133.528 C 114.667 133.113,115.045 132.600,115.447 132.388 C 116.488 131.839,127.734 120.620,127.740 120.124 C 127.743 119.897,128.137 119.613,128.616 119.492 C 129.164 119.355,129.610 118.924,129.816 118.332 C 129.996 117.814,130.364 117.344,130.633 117.287 C 131.314 117.143,142.833 105.589,142.833 105.050 C 142.833 104.808,143.105 104.610,143.437 104.610 C 144.205 104.610,144.845 103.976,144.845 103.214 C 144.845 102.888,145.184 102.447,145.599 102.233 C 146.700 101.666,157.238 91.165,157.599 90.277 C 157.767 89.862,158.180 89.522,158.516 89.522 C 159.288 89.522,159.933 88.892,159.933 88.137 C 159.933 87.817,160.197 87.470,160.520 87.364 C 161.248 87.127,172.100 76.225,172.640 75.189 C 172.856 74.774,173.299 74.434,173.625 74.434 C 174.386 74.434,175.021 73.794,175.021 73.026 C 175.021 72.694,175.192 72.422,175.400 72.422 C 175.938 72.422,186.300 62.120,187.287 60.604 C 187.799 59.818,188.367 59.346,188.801 59.346 C 189.266 59.346,189.623 59.013,189.876 58.340 C 190.085 57.787,190.424 57.334,190.630 57.334 C 190.836 57.334,191.547 56.731,192.209 55.993 C 192.871 55.256,193.570 54.652,193.762 54.652 C 194.192 54.652,198.689 59.301,200.303 61.414 C 200.954 62.268,201.983 63.273,202.588 63.647 C 203.620 64.285,209.554 69.949,211.093 71.765 C 211.478 72.219,212.496 73.240,213.356 74.034 C 214.217 74.827,214.920 75.611,214.920 75.775 C 214.920 76.252,218.318 79.464,218.822 79.464 C 219.073 79.464,219.279 79.621,219.279 79.813 C 219.279 80.006,220.147 80.987,221.207 81.995 C 222.267 83.002,223.245 83.938,223.380 84.076 C 226.388 87.144,230.014 91.019,230.598 91.790 C 231.015 92.339,231.982 93.222,232.747 93.752 C 234.528 94.986,244.542 105.015,245.433 106.456 C 245.804 107.057,246.862 108.057,247.783 108.678 C 248.705 109.299,249.548 110.140,249.657 110.547 C 249.766 110.953,250.407 111.692,251.080 112.188 C 251.754 112.684,253.761 114.560,255.540 116.355 C 257.320 118.151,258.904 119.675,259.061 119.743 C 259.218 119.811,259.788 120.517,260.329 121.313 C 260.870 122.109,261.888 123.165,262.593 123.660 C 264.520 125.014,274.341 134.788,275.246 136.253 C 275.681 136.957,276.629 137.961,277.352 138.485 C 279.768 140.235,289.232 149.687,290.628 151.743 C 291.013 152.310,291.930 153.191,292.666 153.701 C 294.307 154.838,304.336 164.784,305.418 166.346 C 305.848 166.968,306.792 167.930,307.515 168.483 C 308.238 169.036,309.012 169.680,309.234 169.914 C 312.321 173.153,314.248 175.021,314.504 175.021 C 314.677 175.021,315.046 175.459,315.323 175.995 C 315.600 176.531,316.041 177.172,316.302 177.420 C 316.563 177.668,317.902 178.956,319.278 180.283 C 322.124 183.028,323.350 183.561,324.250 182.449 C 325.106 181.393,324.891 170.911,323.910 165.829 C 323.530 163.858,323.219 161.863,323.219 161.395 C 323.219 160.926,322.776 159.237,322.234 157.640 C 321.692 156.043,320.619 152.699,319.850 150.210 C 318.988 147.419,318.101 145.233,317.537 144.510 C 317.034 143.864,316.201 142.280,315.688 140.989 C 315.174 139.698,314.340 138.114,313.835 137.469 C 313.330 136.823,312.671 135.815,312.372 135.229 C 312.049 134.599,311.518 134.119,311.073 134.056 C 310.499 133.974,310.273 133.663,310.126 132.754 C 309.997 131.952,309.198 130.664,307.691 128.828 C 306.458 127.325,305.448 125.952,305.448 125.776 C 305.448 125.601,304.958 125.066,304.359 124.587 C 302.623 123.201,298.081 118.560,298.076 118.168 C 298.072 117.777,296.449 116.168,295.857 115.968 C 295.053 115.696,292.015 111.809,291.704 110.655 C 291.211 108.825,291.292 68.211,291.791 66.796 C 293.111 63.053,289.663 62.460,269.798 63.008 C 268.062 63.056,266.759 64.777,267.036 66.656 C 267.542 70.089,267.747 85.560,267.298 86.363 C 266.993 86.908,266.898 86.883,266.135 86.060 C 265.678 85.567,265.095 85.156,264.840 85.146 C 264.585 85.137,263.470 84.133,262.364 82.915 C 261.257 81.697,259.865 80.234,259.271 79.663 C 254.698 75.275,253.683 74.214,252.948 73.050 C 252.489 72.323,251.629 71.433,251.036 71.073 C 249.596 70.199,238.055 58.729,238.055 58.173 C 238.055 57.933,237.524 57.306,236.875 56.781 C 234.821 55.119,231.958 52.514,230.881 51.327 C 230.309 50.696,229.465 49.866,229.006 49.483 C 226.945 47.760,223.180 43.999,222.604 43.087 C 222.256 42.535,220.654 40.949,219.045 39.562 C 217.436 38.175,215.734 36.472,215.263 35.778 C 214.792 35.084,213.979 34.237,213.457 33.894 C 211.975 32.922,207.879 28.839,207.879 28.334 C 207.879 28.084,207.413 27.529,206.843 27.100 C 206.273 26.671,204.097 24.661,202.006 22.632 C 199.916 20.604,198.039 18.793,197.835 18.609 C 197.631 18.424,196.888 17.632,196.185 16.848 C 194.325 14.776,193.200 14.849,191.036 17.184 M196.223 18.692 C 197.243 19.753,199.528 22.026,201.301 23.744 C 203.074 25.461,204.620 27.245,204.736 27.708 C 204.857 28.191,205.319 28.690,205.823 28.882 C 206.305 29.065,207.159 29.695,207.721 30.282 C 208.283 30.869,211.211 33.764,214.227 36.714 C 217.244 39.665,219.813 42.451,219.936 42.907 C 220.062 43.372,220.483 43.813,220.896 43.913 C 221.705 44.108,234.181 56.246,235.123 57.756 C 235.447 58.274,235.931 58.782,236.199 58.885 C 236.859 59.138,249.468 71.708,250.227 72.869 C 250.559 73.377,251.189 73.929,251.625 74.095 C 252.062 74.261,252.544 74.620,252.697 74.892 C 253.048 75.515,255.258 77.792,260.877 83.319 C 263.314 85.716,265.530 88.017,265.802 88.432 C 266.074 88.847,266.638 89.187,267.055 89.187 C 268.653 89.187,268.690 88.897,268.668 76.741 C 268.644 64.096,268.587 64.422,270.854 64.321 C 279.356 63.942,289.181 64.250,289.846 64.915 C 290.213 65.282,290.305 69.671,290.342 88.730 C 290.368 101.582,290.509 112.312,290.657 112.576 C 290.953 113.105,294.310 116.854,295.893 118.423 C 296.446 118.971,298.613 121.104,300.707 123.163 C 302.802 125.222,305.429 128.076,306.545 129.505 C 307.661 130.935,308.704 132.104,308.863 132.104 C 309.021 132.104,309.330 132.519,309.550 133.026 C 309.769 133.533,310.294 134.375,310.716 134.896 C 311.138 135.417,311.484 135.976,311.484 136.138 C 311.484 136.300,312.080 137.284,312.808 138.323 C 313.536 139.363,314.464 141.218,314.869 142.446 C 315.274 143.673,316.021 145.156,316.530 145.742 C 317.038 146.328,317.554 147.260,317.676 147.814 C 317.798 148.369,318.114 149.002,318.379 149.222 C 318.643 149.441,318.860 149.898,318.860 150.235 C 318.860 150.573,319.680 153.459,320.682 156.649 C 322.727 163.156,323.247 166.550,323.460 174.769 L 323.588 179.715 322.191 179.715 C 321.023 179.715,320.618 179.523,319.720 178.541 C 319.128 177.896,318.537 177.368,318.406 177.368 C 318.274 177.368,316.511 175.708,314.486 173.680 C 312.462 171.651,310.657 169.992,310.474 169.992 C 310.292 169.992,310.142 169.771,310.142 169.500 C 310.142 169.230,309.094 167.985,307.813 166.734 C 305.952 164.918,299.476 158.454,293.994 152.942 C 292.949 151.891,291.588 150.540,291.003 149.972 C 290.742 149.719,289.547 148.563,288.349 147.404 C 287.150 146.245,285.926 145.006,285.628 144.652 C 285.331 144.297,283.898 142.844,282.443 141.422 C 280.989 140.001,278.781 137.813,277.536 136.561 C 276.292 135.308,275.085 134.096,274.854 133.866 C 274.623 133.637,272.482 131.487,270.095 129.088 C 267.709 126.690,265.638 124.728,265.493 124.728 C 265.349 124.728,265.014 124.307,264.748 123.794 C 264.482 123.280,263.870 122.648,263.387 122.390 C 262.904 122.131,262.190 121.404,261.801 120.775 C 261.412 120.145,260.662 119.479,260.136 119.296 C 259.609 119.112,259.179 118.775,259.179 118.545 C 259.179 118.316,257.348 116.332,255.112 114.135 C 252.875 111.939,250.821 109.896,250.547 109.594 C 249.705 108.666,247.944 106.889,246.057 105.064 C 244.712 103.765,243.898 102.955,243.588 102.608 C 243.403 102.402,241.938 100.962,240.332 99.407 C 238.725 97.852,237.165 96.205,236.865 95.746 C 236.565 95.288,236.038 94.824,235.695 94.715 C 235.353 94.606,234.977 94.217,234.861 93.851 C 234.744 93.484,234.080 92.808,233.385 92.348 C 232.690 91.888,231.910 91.116,231.652 90.633 C 231.393 90.149,230.692 89.549,230.092 89.298 C 229.493 89.048,229.003 88.689,229.003 88.501 C 229.003 88.229,223.749 82.686,218.895 77.837 C 218.461 77.404,217.857 76.800,217.553 76.496 C 216.081 75.024,215.256 74.218,213.244 72.285 C 212.045 71.133,210.668 69.750,210.182 69.211 C 209.697 68.672,208.264 67.216,206.997 65.976 C 205.730 64.735,203.773 62.753,202.647 61.571 C 201.522 60.389,200.277 59.249,199.881 59.037 C 199.485 58.825,199.162 58.487,199.162 58.285 C 199.162 57.550,194.541 53.311,193.740 53.311 C 192.897 53.311,189.935 56.238,189.411 57.590 C 189.249 58.007,188.706 58.535,188.205 58.764 C 186.894 59.360,174.685 71.654,174.297 72.768 C 174.102 73.327,173.645 73.784,173.158 73.906 C 172.217 74.142,159.668 86.633,159.231 87.768 C 159.071 88.186,158.580 88.665,158.141 88.832 C 156.969 89.277,144.739 101.590,144.318 102.748 C 144.105 103.335,143.628 103.829,143.145 103.965 C 142.177 104.237,129.726 116.584,129.155 117.838 C 128.937 118.315,128.418 118.838,128.001 118.999 C 127.002 119.385,114.608 131.739,114.099 132.856 C 113.882 133.332,113.406 133.817,113.043 133.932 C 112.159 134.212,99.322 147.044,99.184 147.784 C 99.125 148.104,98.624 148.597,98.071 148.879 C 96.640 149.612,84.439 161.948,84.173 162.932 C 84.041 163.421,83.613 163.841,83.108 163.976 C 82.155 164.231,69.070 177.236,69.070 177.929 C 69.070 178.174,68.912 178.374,68.720 178.374 C 68.350 178.374,68.258 178.439,66.343 180.039 C 64.813 181.317,64.511 181.313,64.250 180.008 C 63.939 178.454,64.050 168.779,64.404 166.555 C 65.339 160.682,65.634 159.489,67.536 153.898 C 68.195 151.961,68.734 150.189,68.734 149.958 C 68.734 149.728,68.878 149.539,69.054 149.539 C 69.230 149.539,69.465 148.973,69.575 148.282 C 69.686 147.590,69.920 146.798,70.095 146.521 C 70.270 146.245,70.916 145.038,71.530 143.839 C 72.144 142.640,73.426 140.391,74.379 138.840 C 75.331 137.289,76.111 135.809,76.111 135.550 C 76.111 135.291,76.484 134.673,76.941 134.178 C 77.397 133.683,78.835 131.925,80.135 130.271 C 81.435 128.618,82.937 126.988,83.473 126.648 C 84.031 126.295,84.539 125.616,84.661 125.059 C 84.779 124.525,85.160 123.997,85.509 123.886 C 85.858 123.775,87.035 122.712,88.124 121.524 C 89.213 120.335,90.180 119.363,90.272 119.363 C 90.365 119.363,92.535 117.226,95.094 114.614 C 97.654 112.002,100.118 109.550,100.570 109.165 C 101.022 108.781,102.030 107.787,102.810 106.957 C 103.591 106.127,104.456 105.222,104.731 104.946 C 105.007 104.669,107.394 102.273,110.035 99.622 C 115.453 94.182,115.406 94.227,117.035 92.891 C 117.691 92.353,118.517 91.375,118.872 90.718 C 119.226 90.060,119.697 89.522,119.918 89.522 C 120.140 89.522,122.482 87.316,125.123 84.619 C 127.764 81.922,130.226 79.470,130.595 79.170 C 130.964 78.871,131.974 77.871,132.840 76.949 C 134.769 74.894,134.412 75.259,140.039 69.612 C 142.590 67.052,145.205 64.487,145.850 63.912 C 146.833 63.036,147.976 61.881,149.870 59.849 C 150.922 58.722,159.907 49.749,160.573 49.162 C 161.733 48.138,163.317 46.559,164.331 45.415 C 164.813 44.871,167.378 42.270,170.031 39.635 C 172.683 37.000,175.080 34.619,175.356 34.343 C 175.633 34.068,176.614 33.098,177.536 32.188 C 178.458 31.278,179.438 30.287,179.715 29.986 C 182.342 27.129,193.402 16.764,193.823 16.764 C 194.123 16.764,195.203 17.632,196.223 18.692 M307.671 18.024 C 308.064 18.480,308.726 19.552,309.143 20.407 C 309.559 21.262,310.254 22.344,310.686 22.812 C 313.299 25.640,312.056 26.782,306.367 26.781 C 300.236 26.779,299.069 25.684,301.585 22.297 C 301.995 21.744,302.597 20.763,302.922 20.117 C 304.499 16.981,306.146 16.255,307.671 18.024 M279.214 27.571 C 278.524 28.359,277.694 29.463,277.370 30.025 C 275.414 33.420,271.837 38.607,270.327 40.238 C 269.359 41.284,268.567 42.384,268.567 42.683 C 268.567 42.982,268.285 43.496,267.941 43.826 C 266.279 45.421,265.834 52.063,267.293 53.522 C 267.968 54.197,292.487 54.339,294.167 53.678 L 295.123 53.301 294.906 50.540 C 294.634 47.085,294.099 44.527,293.557 44.089 C 293.328 43.904,293.031 43.409,292.898 42.990 C 292.765 42.570,291.913 41.301,291.005 40.170 C 290.097 39.039,289.355 37.935,289.355 37.717 C 289.355 37.499,289.054 37.049,288.687 36.717 C 288.320 36.385,287.616 35.418,287.123 34.569 C 286.218 33.013,284.507 30.715,283.102 29.170 C 282.683 28.709,281.919 27.839,281.405 27.236 L 280.469 26.140 279.214 27.571 M338.642 28.500 C 338.235 28.762,338.284 28.826,338.894 28.830 C 339.308 28.833,339.648 28.684,339.648 28.500 C 339.648 28.079,339.292 28.079,338.642 28.500 M281.559 29.151 C 281.974 29.497,282.313 29.931,282.313 30.115 C 282.313 30.299,282.960 31.256,283.751 32.241 C 284.541 33.226,286.211 35.541,287.462 37.385 C 291.003 42.605,292.021 44.005,292.562 44.400 C 292.918 44.661,293.102 45.595,293.198 47.614 C 293.271 49.180,293.435 50.877,293.562 51.385 C 294.048 53.334,294.099 53.327,281.131 53.298 C 272.015 53.278,269.176 53.172,268.717 52.837 C 267.303 51.803,267.467 46.087,268.959 44.404 C 269.296 44.024,269.573 43.594,269.573 43.450 C 269.573 43.306,270.191 42.485,270.947 41.627 C 271.704 40.769,272.551 39.614,272.832 39.061 C 273.349 38.039,273.843 37.324,277.117 32.860 C 278.131 31.478,278.961 30.233,278.961 30.094 C 278.961 28.892,280.555 28.313,281.559 29.151 M306.973 33.169 C 306.516 33.893,305.708 34.987,305.177 35.600 C 304.647 36.213,303.623 37.605,302.903 38.694 C 302.182 39.783,301.340 41.050,301.030 41.510 C 298.462 45.331,301.385 48.635,306.451 47.639 C 307.510 47.430,309.196 47.356,310.197 47.473 C 314.243 47.949,317.685 46.351,316.915 44.355 C 316.717 43.841,316.455 42.917,316.334 42.303 C 316.212 41.689,315.458 40.383,314.658 39.400 C 313.857 38.418,312.816 36.851,312.344 35.919 C 311.871 34.986,311.200 34.071,310.852 33.885 C 310.504 33.699,310.124 33.165,310.007 32.700 C 309.648 31.271,308.011 31.524,306.973 33.169 M309.657 33.948 C 309.972 34.979,312.744 39.483,313.892 40.828 C 317.024 44.497,315.488 46.216,308.924 46.387 C 299.528 46.632,299.207 45.023,306.744 35.457 C 308.633 33.060,309.283 32.723,309.657 33.948 M132.920 301.090 C 132.920 305.792,132.967 307.716,133.025 305.365 C 133.083 303.013,133.083 299.166,133.025 296.815 C 132.967 294.464,132.920 296.387,132.920 301.090 M137.862 302.663 C 137.830 304.911,137.917 306.820,138.055 306.907 C 138.194 306.993,138.266 305.757,138.217 304.160 C 138.059 299.039,137.923 298.464,137.862 302.663 M257.965 310.645 C 257.966 312.858,258.020 313.720,258.086 312.560 C 258.152 311.400,258.151 309.590,258.085 308.537 C 258.018 307.484,257.965 308.433,257.965 310.645 M317.304 310.813 C 317.304 312.565,317.361 313.282,317.430 312.406 C 317.499 311.530,317.499 310.096,317.430 309.220 C 317.361 308.345,317.304 309.061,317.304 310.813 M137.938 317.687 C 137.938 320.453,137.990 321.540,138.053 320.102 C 138.116 318.664,138.116 316.401,138.053 315.073 C 137.989 313.744,137.937 314.920,137.938 317.687 M132.905 318.692 C 132.905 321.090,132.959 322.026,133.023 320.774 C 133.088 319.522,133.088 317.560,133.022 316.415 C 132.957 315.270,132.904 316.295,132.905 318.692 M317.312 318.357 C 317.312 320.570,317.366 321.432,317.432 320.272 C 317.498 319.112,317.497 317.302,317.431 316.248 C 317.365 315.195,317.311 316.144,317.312 318.357 M205.610 322.883 C 205.610 323.529,205.679 323.793,205.763 323.470 C 205.848 323.148,205.848 322.619,205.763 322.297 C 205.679 321.974,205.610 322.238,205.610 322.883 M179.811 324.057 C 179.813 324.979,179.879 325.316,179.956 324.807 C 180.033 324.297,180.031 323.543,179.951 323.130 C 179.871 322.718,179.808 323.135,179.811 324.057 " stroke="none" fill="#f7e69c" fill-rule="evenodd"></path></g></svg>